<svg xmlns="http://www.w3.org/2000/svg" xmlns:xlink="http://www.w3.org/1999/xlink" width="1920" zoomAndPan="magnify" viewBox="0 0 1440 809.999993" height="1080" preserveAspectRatio="xMidYMid meet" version="1.0"><defs><g/><clipPath id="323bc28eb1"><path d="M 317 91.242188 L 393 91.242188 L 393 200 L 317 200 Z M 317 91.242188 " clip-rule="nonzero"/></clipPath><clipPath id="79b89063af"><path d="M 486.347656 278 L 593.964844 278 L 593.964844 358 L 486.347656 358 Z M 486.347656 278 " clip-rule="nonzero"/></clipPath><clipPath id="c529586c51"><path d="M 969 471.707031 L 991 471.707031 L 991 495 L 969 495 Z M 969 471.707031 " clip-rule="nonzero"/></clipPath><clipPath id="343f537b1c"><path d="M 952.21875 490 L 977 490 L 977 504 L 952.21875 504 Z M 952.21875 490 " clip-rule="nonzero"/></clipPath><clipPath id="36c3129682"><path d="M 964 515 L 979 515 L 979 537.75 L 964 537.75 Z M 964 515 " clip-rule="nonzero"/></clipPath><clipPath id="3b8e314336"><path d="M 982 515 L 997 515 L 997 537.75 L 982 537.75 Z M 982 515 " clip-rule="nonzero"/></clipPath><clipPath id="ebfa213810"><path d="M 1076.875 515 L 1092 515 L 1092 537.75 L 1076.875 537.75 Z M 1076.875 515 " clip-rule="nonzero"/></clipPath><clipPath id="b4e25e6c75"><path d="M 1095 515 L 1110 515 L 1110 537.75 L 1095 537.75 Z M 1095 515 " clip-rule="nonzero"/></clipPath><clipPath id="c05a8e6a7a"><path d="M 1138 471.707031 L 1160 471.707031 L 1160 495 L 1138 495 Z M 1138 471.707031 " clip-rule="nonzero"/></clipPath><clipPath id="d76ba19e07"><path d="M 1133 515 L 1148 515 L 1148 537.75 L 1133 537.75 Z M 1133 515 " clip-rule="nonzero"/></clipPath><clipPath id="9e462d753e"><path d="M 1151 515 L 1166 515 L 1166 537.75 L 1151 537.75 Z M 1151 515 " clip-rule="nonzero"/></clipPath><clipPath id="6259580e4b"><path d="M 1195 471.707031 L 1216 471.707031 L 1216 495 L 1195 495 Z M 1195 471.707031 " clip-rule="nonzero"/></clipPath><clipPath id="e7400bf335"><path d="M 1209 489 L 1232.488281 489 L 1232.488281 504 L 1209 504 Z M 1209 489 " clip-rule="nonzero"/></clipPath><clipPath id="24a6fa1c0b"><path d="M 1189 515 L 1204 515 L 1204 537.75 L 1189 537.75 Z M 1189 515 " clip-rule="nonzero"/></clipPath><clipPath id="75ef91e174"><path d="M 1208 515 L 1223 515 L 1223 537.75 L 1208 537.75 Z M 1208 515 " clip-rule="nonzero"/></clipPath><clipPath id="a207755d55"><path d="M 1020 515 L 1035 515 L 1035 537.75 L 1020 537.75 Z M 1020 515 " clip-rule="nonzero"/></clipPath><clipPath id="fa757ed5e7"><path d="M 1039 515 L 1054 515 L 1054 537.75 L 1039 537.75 Z M 1039 515 " clip-rule="nonzero"/></clipPath></defs><path fill="#f22f58" d="M 355.574219 391.636719 C 353.710938 391.636719 351.757812 391.28125 349.894531 390.394531 C 323.546875 377.878906 298.703125 358.4375 276.082031 332.605469 C 267.917969 323.195312 261.265625 313.695312 257.003906 305.175781 C 246.09375 283.605469 247.421875 258.394531 260.644531 239.398438 C 273.242188 221.109375 294 211.613281 317.511719 213.210938 C 331.796875 214.1875 345.195312 220.046875 354.863281 229.1875 C 366.132812 218.003906 381.835938 212.5 400.910156 213.210938 C 420.074219 213.921875 436.664062 222.351562 447.753906 237.089844 C 459.464844 252.710938 463.191406 273.394531 457.78125 292.660156 C 454.410156 304.644531 447.753906 316.449219 437.285156 328.789062 C 419.898438 349.472656 399.402344 367.402344 376.421875 382.050781 C 371.453125 385.246094 366.398438 388.085938 361.164062 390.484375 C 359.390625 391.28125 357.527344 391.636719 355.574219 391.636719 Z M 359.476562 371.21875 Z M 312.542969 234.335938 C 298.4375 234.335938 286.28125 240.460938 278.832031 251.292969 C 269.957031 263.984375 269.160156 281.03125 276.613281 295.765625 C 280.160156 302.777344 285.75 310.679688 292.757812 318.757812 C 312.277344 341.039062 333.394531 358.082031 355.664062 369.355469 C 358.589844 367.847656 361.519531 366.160156 364.355469 364.296875 C 385.5625 350.714844 404.371094 334.292969 420.339844 315.296875 C 428.855469 305.265625 434.179688 296.03125 436.753906 287.066406 C 440.390625 274.015625 437.996094 260.082031 430.1875 249.695312 C 423.089844 240.375 412.445312 234.957031 400.113281 234.425781 C 383.433594 233.894531 372.34375 239.128906 365.15625 250.9375 C 362.671875 254.84375 358.234375 256.972656 353.710938 256.441406 C 350.160156 256.175781 346.789062 254.042969 344.75 250.757812 C 339.25 241.617188 328.070312 235.3125 316.09375 234.425781 C 314.761719 234.425781 313.609375 234.335938 312.542969 234.335938 Z M 312.542969 234.335938 " fill-opacity="1" fill-rule="nonzero"/><path fill="#f22f58" d="M 566.285156 630.070312 C 527.601562 603.085938 474.816406 585.953125 418.210938 578.761719 C 407.386719 577.429688 397.804688 571.394531 392.125 562.429688 C 380.769531 544.410156 367.285156 513.074219 373.671875 471.53125 C 383.875 406.195312 440.214844 388.175781 442.609375 387.375 C 447.753906 385.777344 450.59375 380.453125 448.996094 375.480469 C 447.398438 370.507812 441.988281 367.667969 436.84375 369.179688 C 436.84375 369.179688 436.753906 369.265625 436.574219 369.265625 C 432.496094 370.242188 384.320312 382.582031 354.953125 433.269531 C 325.585938 382.582031 277.410156 370.242188 273.417969 369.265625 C 273.242188 369.265625 273.152344 369.179688 273.152344 369.179688 C 268.007812 367.667969 262.507812 370.507812 260.910156 375.480469 C 259.3125 380.453125 262.152344 385.777344 267.296875 387.375 C 269.691406 388.175781 326.117188 406.195312 336.234375 471.53125 C 342.710938 513.074219 329.222656 544.410156 317.777344 562.429688 C 312.101562 571.484375 302.519531 577.429688 291.785156 578.761719 C 235.179688 585.953125 182.300781 603.085938 143.621094 630.070312 C 133.59375 637.527344 144.242188 652.175781 154.710938 645.695312 C 183.542969 627.320312 217.082031 616.046875 250.707031 608.855469 C 335.699219 591.988281 427.261719 594.207031 509.148438 623.148438 C 525.386719 629.09375 541 636.550781 555.195312 645.695312 C 565.929688 652.175781 576.222656 637.441406 566.285156 630.070312 Z M 566.285156 630.070312 " fill-opacity="1" fill-rule="nonzero"/><g clip-path="url(#323bc28eb1)"><path fill="#2bb673" d="M 357.082031 92.21875 C 355.839844 91.242188 354.066406 91.242188 352.824219 92.21875 C 344.839844 98.074219 317.777344 120.179688 317.777344 146.542969 C 317.777344 176.28125 338.007812 192.527344 348.566406 199.007812 C 349.363281 199.539062 350.515625 198.917969 350.429688 197.941406 C 350.25 185.246094 350.695312 172.554688 351.402344 159.859375 C 351.757812 154.355469 352.113281 148.675781 352.824219 143.171875 C 353 140.953125 356.90625 140.863281 357.082031 143.171875 C 358.945312 161.367188 359.65625 179.65625 359.300781 198.03125 C 359.300781 199.007812 360.363281 199.628906 361.253906 199.09375 C 371.808594 192.617188 392.039062 176.371094 392.039062 146.542969 C 392.039062 120.179688 365.066406 98.074219 357.082031 92.21875 Z M 357.082031 92.21875 " fill-opacity="1" fill-rule="nonzero"/></g><path fill="#2bb673" d="M 244.851562 219.511719 C 245.738281 219.425781 246.09375 218.449219 245.472656 217.738281 C 238.109375 209.480469 231.097656 200.871094 224.355469 192.171875 C 221.429688 188.265625 218.5 184.359375 215.75 180.277344 C 214.597656 178.679688 217.167969 176.636719 218.589844 177.96875 C 230.210938 189.066406 241.125 200.695312 251.414062 212.945312 C 251.949219 213.652344 253.011719 213.476562 253.277344 212.675781 C 256.5625 202.644531 260.644531 180.988281 243.609375 161.28125 C 228.527344 143.792969 198.09375 143.882812 189.488281 144.324219 C 188.070312 144.414062 186.914062 145.300781 186.648438 146.632812 C 184.699219 154.886719 179.550781 184.09375 194.546875 201.492188 C 211.582031 221.199219 234.203125 220.933594 244.851562 219.511719 Z M 244.851562 219.511719 " fill-opacity="1" fill-rule="nonzero"/><path fill="#2bb673" d="M 240.769531 391.191406 C 229.234375 395.808594 217.523438 399.890625 205.726562 403.710938 C 200.488281 405.394531 195.34375 406.992188 189.933594 408.414062 C 187.890625 408.945312 186.472656 405.664062 188.425781 404.6875 C 204.484375 396.695312 220.894531 389.683594 237.753906 383.558594 C 238.640625 383.203125 238.816406 382.050781 238.019531 381.515625 C 228.4375 374.59375 206.523438 362.785156 179.375 373.261719 C 155.332031 382.40625 144.597656 413.5625 142.023438 422.441406 C 141.578125 423.949219 142.199219 425.457031 143.53125 426.167969 C 151.695312 430.960938 181.238281 446.675781 205.28125 437.441406 C 232.429688 427.054688 240.238281 403.886719 242.457031 392.523438 C 242.632812 391.636719 241.65625 390.835938 240.769531 391.191406 Z M 240.769531 391.191406 " fill-opacity="1" fill-rule="nonzero"/><path fill="#2bb673" d="M 302.960938 424.304688 C 302.609375 423.59375 301.542969 423.417969 301.097656 424.039062 C 294.269531 432.824219 287.082031 441.257812 279.71875 449.601562 C 276.433594 453.242188 273.152344 456.882812 269.605469 460.34375 C 268.273438 461.765625 265.609375 459.8125 266.675781 458.125 C 275.371094 444.722656 284.863281 431.761719 295.066406 419.511719 C 295.597656 418.800781 295.15625 417.824219 294.269531 417.734375 C 283.53125 416.757812 260.910156 417.378906 244.671875 437.707031 C 230.300781 455.726562 236.6875 484.84375 238.90625 492.921875 C 239.261719 494.253906 240.503906 495.140625 241.921875 495.140625 C 250.527344 495.230469 281.046875 494.078125 295.332031 476.054688 C 311.570312 455.726562 306.6875 434.246094 302.960938 424.304688 Z M 302.960938 424.304688 " fill-opacity="1" fill-rule="nonzero"/><path fill="#2bb673" d="M 152.316406 351.070312 C 180.882812 365.007812 205.902344 354.265625 217.082031 347.695312 C 217.96875 347.074219 217.878906 345.832031 216.902344 345.386719 C 204.660156 339.707031 192.683594 333.316406 180.792969 326.746094 C 175.558594 323.816406 170.414062 320.886719 165.355469 317.691406 C 163.316406 316.359375 165.089844 312.898438 167.308594 313.695312 C 185.675781 320.621094 203.683594 328.523438 221.164062 337.398438 C 222.050781 337.84375 223.113281 337.132812 223.023438 336.15625 C 221.78125 323.460938 215.660156 297.363281 187.003906 283.425781 C 161.628906 271.085938 127.828125 285.378906 118.421875 289.90625 C 116.914062 290.617188 116.117188 292.214844 116.382812 293.8125 C 118.421875 303.84375 126.941406 338.820312 152.316406 351.070312 Z M 152.316406 351.070312 " fill-opacity="1" fill-rule="nonzero"/><path fill="#2bb673" d="M 293.203125 188.886719 C 293.734375 188.976562 294.089844 188.441406 293.914062 187.910156 C 290.984375 181.875 288.324219 175.660156 285.839844 169.445312 C 284.773438 166.695312 283.710938 163.941406 282.734375 161.101562 C 282.378906 159.949219 284.242188 159.148438 284.863281 160.214844 C 289.742188 168.558594 294.179688 177.167969 298.171875 186.046875 C 298.347656 186.578125 298.96875 186.667969 299.324219 186.222656 C 302.960938 180.898438 309.085938 168.738281 302.429688 154.445312 C 296.484375 141.75 278.652344 136.867188 273.507812 135.714844 C 272.621094 135.535156 271.820312 135.980469 271.378906 136.691406 C 268.894531 141.21875 260.820312 157.460938 266.675781 170.15625 C 273.417969 184.449219 286.636719 188 293.203125 188.886719 Z M 293.203125 188.886719 " fill-opacity="1" fill-rule="nonzero"/><path fill="#2bb673" d="M 191.882812 265.40625 C 205.457031 273.839844 218.589844 269.667969 224.535156 266.914062 C 224.976562 266.648438 224.976562 266.027344 224.535156 265.761719 C 218.765625 262.300781 213 258.484375 207.410156 254.664062 C 205.015625 252.890625 202.53125 251.113281 200.136719 249.339844 C 199.25 248.539062 200.3125 246.941406 201.378906 247.386719 C 210.25 251.824219 218.855469 256.617188 227.105469 261.945312 C 227.550781 262.210938 228.171875 261.945312 228.171875 261.410156 C 228.171875 255.019531 226.484375 241.703125 212.824219 233.273438 C 200.84375 225.816406 183.101562 231.320312 178.132812 233.003906 C 177.335938 233.359375 176.890625 234.070312 176.980469 234.871094 C 177.335938 240.019531 179.816406 257.949219 191.882812 265.40625 Z M 191.882812 265.40625 " fill-opacity="1" fill-rule="nonzero"/><path fill="#2bb673" d="M 213.265625 467.179688 C 213.265625 469.84375 212.289062 472.152344 210.339844 474.015625 C 208.386719 475.878906 206.078125 476.855469 203.328125 476.855469 C 200.578125 476.855469 198.183594 475.878906 196.230469 474.015625 C 194.28125 472.152344 193.304688 469.84375 193.304688 467.179688 C 193.304688 464.515625 194.28125 462.207031 196.230469 460.34375 C 198.183594 458.390625 200.578125 457.503906 203.328125 457.503906 C 206.078125 457.503906 208.386719 458.390625 210.339844 460.34375 C 212.289062 462.207031 213.265625 464.515625 213.265625 467.179688 Z M 213.265625 467.179688 " fill-opacity="1" fill-rule="nonzero"/><path fill="#2bb673" d="M 131.910156 357.90625 C 126.851562 357.90625 122.683594 361.898438 122.683594 366.871094 C 122.683594 371.839844 126.851562 375.835938 131.910156 375.835938 C 136.964844 375.835938 141.136719 371.839844 141.136719 366.871094 C 141.136719 361.898438 136.964844 357.90625 131.910156 357.90625 Z M 131.910156 357.90625 " fill-opacity="1" fill-rule="nonzero"/><path fill="#2bb673" d="M 159.144531 245.167969 C 159.144531 247.652344 158.257812 249.78125 156.484375 251.46875 C 154.710938 253.246094 152.492188 254.132812 149.917969 254.132812 C 147.433594 254.132812 145.21875 253.246094 143.441406 251.46875 C 141.667969 249.78125 140.78125 247.652344 140.78125 245.167969 C 140.78125 242.679688 141.667969 240.550781 143.441406 238.863281 C 145.21875 237.089844 147.433594 236.203125 149.917969 236.203125 C 152.492188 236.203125 154.710938 237.089844 156.484375 238.863281 C 158.257812 240.550781 159.144531 242.679688 159.144531 245.167969 Z M 159.144531 245.167969 " fill-opacity="1" fill-rule="nonzero"/><path fill="#2bb673" d="M 465.054688 219.511719 C 464.167969 219.425781 463.8125 218.449219 464.34375 217.738281 C 471.710938 209.480469 478.71875 200.871094 485.460938 192.171875 C 488.476562 188.265625 491.40625 184.359375 494.15625 180.277344 C 495.308594 178.679688 492.734375 176.636719 491.316406 177.96875 C 479.695312 189.066406 468.691406 200.695312 458.488281 212.945312 C 457.957031 213.652344 456.894531 213.476562 456.625 212.675781 C 453.34375 202.644531 449.261719 180.988281 466.296875 161.28125 C 481.378906 143.792969 511.8125 143.882812 520.417969 144.324219 C 521.835938 144.414062 522.988281 145.300781 523.257812 146.632812 C 525.121094 154.886719 530.355469 184.09375 515.269531 201.492188 C 498.324219 221.199219 475.703125 220.933594 465.054688 219.511719 Z M 465.054688 219.511719 " fill-opacity="1" fill-rule="nonzero"/><path fill="#2bb673" d="M 469.136719 391.191406 C 480.582031 395.808594 492.292969 399.890625 504.09375 403.710938 C 509.328125 405.394531 514.5625 406.992188 519.882812 408.414062 C 522.015625 408.945312 523.34375 405.664062 521.394531 404.6875 C 505.421875 396.695312 489.011719 389.683594 472.152344 383.558594 C 471.265625 383.203125 471.089844 382.050781 471.796875 381.515625 C 481.378906 374.59375 503.292969 362.785156 530.53125 373.261719 C 554.574219 382.40625 565.222656 413.5625 567.882812 422.441406 C 568.328125 423.949219 567.707031 425.457031 566.375 426.167969 C 558.210938 430.960938 528.667969 446.675781 504.535156 437.441406 C 477.386719 427.054688 469.667969 403.886719 467.449219 392.523438 C 467.273438 391.636719 468.160156 390.835938 469.136719 391.191406 Z M 469.136719 391.191406 " fill-opacity="1" fill-rule="nonzero"/><path fill="#2bb673" d="M 406.941406 424.304688 C 407.210938 423.59375 408.273438 423.417969 408.804688 424.039062 C 415.550781 432.824219 422.734375 441.257812 430.1875 449.601562 C 433.472656 453.242188 436.753906 456.882812 440.214844 460.34375 C 441.632812 461.765625 444.207031 459.8125 443.140625 458.125 C 434.535156 444.722656 425.042969 431.761719 414.839844 419.511719 C 414.308594 418.800781 414.660156 417.824219 415.550781 417.734375 C 426.285156 416.757812 448.996094 417.378906 465.234375 437.707031 C 479.605469 455.726562 473.128906 484.84375 470.910156 492.921875 C 470.554688 494.253906 469.402344 495.140625 467.984375 495.140625 C 459.378906 495.230469 428.855469 494.078125 414.484375 476.054688 C 398.25 455.726562 403.21875 434.246094 406.941406 424.304688 Z M 406.941406 424.304688 " fill-opacity="1" fill-rule="nonzero"/><g clip-path="url(#79b89063af)"><path fill="#2bb673" d="M 557.589844 351.070312 C 529.023438 365.007812 504.003906 354.265625 492.824219 347.695312 C 491.9375 347.074219 492.027344 345.832031 492.914062 345.386719 C 505.246094 339.707031 517.222656 333.316406 529.113281 326.746094 C 534.257812 323.816406 539.492188 320.886719 544.550781 317.691406 C 546.589844 316.359375 544.726562 312.898438 542.507812 313.695312 C 524.144531 320.621094 506.222656 328.523438 488.742188 337.398438 C 487.855469 337.84375 486.703125 337.132812 486.792969 336.15625 C 488.035156 323.460938 494.15625 297.363281 522.902344 283.425781 C 548.1875 271.085938 582.078125 285.378906 591.480469 289.90625 C 592.992188 290.617188 593.789062 292.214844 593.433594 293.8125 C 591.480469 303.84375 582.875 338.820312 557.589844 351.070312 Z M 557.589844 351.070312 " fill-opacity="1" fill-rule="nonzero"/></g><path fill="#2bb673" d="M 416.613281 188.886719 C 416.171875 188.976562 415.726562 188.441406 415.992188 187.910156 C 418.921875 181.875 421.492188 175.660156 424.066406 169.445312 C 425.132812 166.695312 426.195312 163.941406 427.082031 161.101562 C 427.527344 159.949219 425.664062 159.148438 425.042969 160.214844 C 420.164062 168.558594 415.636719 177.167969 411.734375 186.046875 C 411.558594 186.578125 410.847656 186.667969 410.582031 186.222656 C 406.941406 180.898438 400.820312 168.738281 407.476562 154.445312 C 413.332031 141.75 431.253906 136.867188 436.398438 135.714844 C 437.195312 135.535156 438.085938 135.980469 438.4375 136.691406 C 440.921875 141.21875 448.996094 157.460938 443.140625 170.15625 C 436.488281 184.449219 423.179688 188 416.613281 188.886719 Z M 416.613281 188.886719 " fill-opacity="1" fill-rule="nonzero"/><path fill="#2bb673" d="M 518.023438 265.40625 C 504.449219 273.839844 491.316406 269.667969 485.371094 266.914062 C 484.929688 266.648438 484.929688 266.027344 485.371094 265.761719 C 491.140625 262.300781 496.90625 258.484375 502.496094 254.664062 C 504.890625 252.890625 507.375 251.113281 509.769531 249.339844 C 510.65625 248.539062 509.59375 246.941406 508.527344 247.386719 C 499.65625 251.824219 491.050781 256.617188 482.800781 261.945312 C 482.355469 262.210938 481.734375 261.945312 481.734375 261.410156 C 481.734375 255.019531 483.421875 241.703125 497.082031 233.273438 C 509.0625 225.816406 526.804688 231.320312 531.773438 233.003906 C 532.570312 233.359375 533.015625 234.070312 532.925781 234.871094 C 532.484375 240.019531 530.085938 257.949219 518.023438 265.40625 Z M 518.023438 265.40625 " fill-opacity="1" fill-rule="nonzero"/><path fill="#2bb673" d="M 516.601562 467.179688 C 516.601562 469.84375 515.625 472.152344 513.675781 474.015625 C 511.722656 475.878906 509.328125 476.855469 506.578125 476.855469 C 503.828125 476.855469 501.519531 475.878906 499.566406 474.015625 C 497.617188 472.152344 496.640625 469.84375 496.640625 467.179688 C 496.640625 464.515625 497.617188 462.207031 499.566406 460.34375 C 501.519531 458.390625 503.828125 457.503906 506.578125 457.503906 C 509.328125 457.503906 511.722656 458.390625 513.675781 460.34375 C 515.625 462.207031 516.601562 464.515625 516.601562 467.179688 Z M 516.601562 467.179688 " fill-opacity="1" fill-rule="nonzero"/><path fill="#2bb673" d="M 577.996094 357.90625 C 583.054688 357.90625 587.136719 361.898438 587.136719 366.871094 C 587.136719 371.839844 583.054688 375.835938 577.996094 375.835938 C 572.851562 375.835938 568.769531 371.839844 568.769531 366.871094 C 568.769531 361.898438 572.851562 357.90625 577.996094 357.90625 Z M 577.996094 357.90625 " fill-opacity="1" fill-rule="nonzero"/><path fill="#2bb673" d="M 569.125 245.167969 C 569.125 247.652344 568.238281 249.78125 566.375 251.46875 C 564.601562 253.246094 562.46875 254.132812 559.898438 254.132812 C 557.414062 254.132812 555.195312 253.246094 553.421875 251.46875 C 551.648438 249.78125 550.757812 247.652344 550.757812 245.167969 C 550.757812 242.679688 551.648438 240.550781 553.421875 238.863281 C 555.195312 237.089844 557.414062 236.203125 559.898438 236.203125 C 562.46875 236.203125 564.601562 237.089844 566.375 238.863281 C 568.238281 240.550781 569.125 242.679688 569.125 245.167969 Z M 569.125 245.167969 " fill-opacity="1" fill-rule="nonzero"/><path fill="#ffffff" d="M 698.203125 457.808594 C 700.507812 457.808594 702.28125 458.519531 703.523438 459.941406 C 704.945312 461.359375 705.652344 463.3125 705.652344 465.621094 L 705.652344 546.933594 C 705.652344 549.332031 704.765625 551.371094 703.171875 552.96875 C 701.75 554.65625 699.710938 555.457031 697.136719 555.457031 C 695.894531 555.457031 694.652344 555.277344 693.234375 554.746094 C 691.992188 554.300781 691.191406 553.679688 690.75 552.96875 L 639.644531 487.992188 L 639.644531 547.644531 C 639.644531 549.773438 638.9375 551.726562 637.515625 553.324219 C 636.097656 554.746094 634.144531 555.457031 631.839844 555.457031 C 629.441406 555.457031 627.578125 554.746094 626.160156 553.324219 C 624.742188 551.726562 624.03125 549.773438 624.03125 547.644531 L 624.03125 466.332031 C 624.03125 464.023438 624.828125 461.980469 626.515625 460.296875 C 628.113281 458.699219 630.152344 457.808594 632.546875 457.808594 C 633.96875 457.808594 635.386719 458.164062 636.808594 458.875 C 638.226562 459.40625 639.113281 460.117188 639.644531 461.003906 L 690.75 525.628906 L 690.75 465.621094 C 690.75 463.3125 691.457031 461.359375 692.878906 459.941406 C 694.296875 458.519531 696.074219 457.808594 698.203125 457.808594 Z M 698.203125 457.808594 " fill-opacity="1" fill-rule="nonzero"/><path fill="#ffffff" d="M 807.765625 502.550781 C 810.070312 502.550781 812.113281 503.4375 813.796875 505.035156 C 815.394531 506.722656 816.28125 508.761719 816.28125 511.070312 L 816.28125 540.898438 C 816.28125 544.003906 814.863281 546.492188 812.023438 548.355469 C 802.796875 554.035156 792.683594 556.875 781.859375 556.875 C 772.632812 556.875 764.113281 554.65625 756.308594 550.128906 C 748.5 545.691406 742.289062 539.65625 737.855469 532.019531 C 733.328125 524.210938 731.109375 515.6875 731.109375 506.457031 C 731.109375 497.488281 733.328125 489.234375 737.855469 481.601562 C 742.289062 473.789062 748.5 467.664062 756.308594 463.136719 C 764.113281 458.699219 772.632812 456.390625 781.859375 456.390625 C 791.085938 456.390625 799.070312 458.34375 805.992188 462.070312 C 807.410156 462.78125 808.476562 463.757812 809.183594 464.910156 C 809.894531 466.152344 810.25 467.398438 810.25 468.816406 C 810.25 471.214844 809.363281 473.253906 807.765625 474.851562 C 806.347656 476.539062 804.394531 477.339844 802.085938 477.339844 C 800.667969 477.339844 799.070312 476.984375 797.472656 476.273438 C 792.503906 474.144531 787.269531 473.078125 781.859375 473.078125 C 775.914062 473.078125 770.503906 474.675781 765.535156 477.695312 C 760.566406 480.800781 756.484375 484.972656 753.46875 490.121094 C 750.628906 495.09375 749.210938 500.597656 749.210938 506.457031 C 749.210938 512.667969 750.628906 518.351562 753.46875 523.5 C 756.484375 528.46875 760.566406 532.554688 765.535156 535.570312 C 770.503906 538.679688 775.914062 540.1875 781.859375 540.1875 C 784.433594 540.1875 787.183594 540.011719 790.019531 539.476562 C 793.039062 539.035156 795.789062 538.414062 798.183594 537.703125 L 798.183594 519.59375 L 785.054688 519.59375 C 782.65625 519.59375 780.617188 518.792969 779.019531 517.109375 C 777.335938 515.511719 776.535156 513.46875 776.535156 511.070312 C 776.535156 508.761719 777.335938 506.722656 779.019531 505.035156 C 780.617188 503.4375 782.65625 502.550781 785.054688 502.550781 Z M 807.765625 502.550781 " fill-opacity="1" fill-rule="nonzero"/><path fill="#ffffff" d="M 932.113281 506.457031 C 932.113281 515.6875 929.984375 524.210938 925.726562 532.019531 C 921.644531 539.65625 915.964844 545.691406 908.691406 550.128906 C 901.59375 554.65625 893.519531 556.875 884.558594 556.875 C 875.507812 556.875 867.347656 554.65625 860.070312 550.128906 C 852.972656 545.691406 847.382812 539.65625 843.390625 532.019531 C 839.3125 524.210938 837.359375 515.6875 837.359375 506.457031 C 837.359375 497.488281 839.3125 489.234375 843.390625 481.601562 C 847.382812 473.789062 852.972656 467.664062 860.070312 463.136719 C 867.347656 458.699219 875.507812 456.390625 884.558594 456.390625 C 893.519531 456.390625 901.59375 458.699219 908.691406 463.136719 C 915.964844 467.664062 921.644531 473.789062 925.726562 481.601562 C 929.984375 489.234375 932.113281 497.488281 932.113281 506.457031 Z M 913.660156 506.457031 C 913.660156 500.332031 912.328125 494.738281 909.753906 489.765625 C 907.359375 484.617188 903.898438 480.535156 899.464844 477.695312 C 895.203125 474.675781 890.238281 473.078125 884.558594 473.078125 C 878.878906 473.078125 873.734375 474.675781 869.296875 477.695312 C 865.039062 480.535156 861.578125 484.617188 859.007812 489.765625 C 856.613281 494.738281 855.457031 500.332031 855.457031 506.457031 C 855.457031 512.847656 856.613281 518.707031 859.007812 523.855469 C 861.578125 528.824219 865.039062 532.910156 869.296875 535.925781 C 873.734375 538.765625 878.878906 540.1875 884.558594 540.1875 C 890.238281 540.1875 895.203125 538.765625 899.464844 535.925781 C 903.898438 532.910156 907.359375 528.824219 909.753906 523.855469 C 912.328125 518.707031 913.660156 512.847656 913.660156 506.457031 Z M 913.660156 506.457031 " fill-opacity="1" fill-rule="nonzero"/><path fill="#ffffff" d="M 648.4375 605.441406 C 649.589844 606.152344 650.210938 607.214844 650.210938 608.636719 C 650.210938 609.347656 649.945312 610.054688 649.5 610.765625 C 648.792969 611.742188 647.90625 612.1875 647.015625 612.1875 C 646.484375 612.1875 645.953125 612.007812 645.242188 611.476562 C 643.292969 610.589844 641.339844 610.054688 639.210938 610.054688 C 636.546875 610.054688 634.242188 610.675781 632.113281 611.832031 C 630.160156 613.074219 628.652344 614.671875 627.5 616.804688 C 626.523438 618.753906 626.078125 620.976562 626.078125 623.550781 C 626.078125 628.078125 627.234375 631.539062 629.628906 633.847656 C 632.199219 635.976562 635.394531 637.042969 639.210938 637.042969 C 641.515625 637.042969 643.558594 636.6875 645.242188 635.976562 C 645.953125 635.53125 646.484375 635.265625 647.015625 635.265625 C 647.90625 635.265625 648.792969 635.800781 649.5 636.6875 C 650.210938 637.398438 650.566406 638.285156 650.566406 639.171875 C 650.566406 639.707031 650.300781 640.148438 649.855469 640.59375 C 649.589844 641.125 649.234375 641.480469 648.792969 641.660156 C 645.6875 643.34375 642.492188 644.144531 639.210938 644.144531 C 635.394531 644.144531 631.933594 643.34375 628.917969 641.660156 C 625.8125 640.058594 623.328125 637.664062 621.464844 634.558594 C 619.515625 631.539062 618.625 627.808594 618.625 623.550781 C 618.625 619.820312 619.425781 616.359375 621.109375 613.253906 C 622.972656 610.234375 625.457031 607.835938 628.5625 606.152344 C 631.847656 604.285156 635.394531 603.308594 639.210938 603.308594 C 642.492188 603.308594 645.597656 604.019531 648.4375 605.441406 Z M 648.4375 605.441406 " fill-opacity="1" fill-rule="nonzero"/><path fill="#ffffff" d="M 704.179688 623.550781 C 704.179688 627.367188 703.292969 630.828125 701.695312 633.847656 C 700.007812 636.953125 697.613281 639.4375 694.597656 641.304688 C 691.757812 643.257812 688.5625 644.144531 685.015625 644.144531 C 681.199219 644.144531 677.742188 643.257812 674.722656 641.304688 C 671.886719 639.4375 669.578125 636.953125 667.980469 633.847656 C 666.296875 630.828125 665.496094 627.367188 665.496094 623.550781 C 665.496094 619.820312 666.296875 616.359375 667.980469 613.253906 C 669.578125 610.234375 671.886719 607.75 674.722656 605.796875 C 677.742188 603.929688 681.199219 602.953125 685.015625 602.953125 C 688.5625 602.953125 691.757812 603.929688 694.597656 605.796875 C 697.613281 607.75 700.007812 610.234375 701.695312 613.253906 C 703.292969 616.359375 704.179688 619.820312 704.179688 623.550781 Z M 696.726562 623.550781 C 696.726562 620.976562 696.195312 618.753906 695.308594 616.804688 C 694.332031 614.671875 692.910156 613.074219 691.046875 611.832031 C 689.097656 610.675781 687.144531 610.054688 685.015625 610.054688 C 682.621094 610.054688 680.492188 610.675781 678.628906 611.832031 C 676.941406 613.074219 675.523438 614.671875 674.367188 616.804688 C 673.394531 618.753906 672.949219 620.976562 672.949219 623.550781 C 672.949219 626.210938 673.394531 628.519531 674.367188 630.652344 C 675.523438 632.605469 676.941406 634.113281 678.628906 635.265625 C 680.492188 636.507812 682.621094 637.042969 685.015625 637.042969 C 687.144531 637.042969 689.097656 636.507812 691.046875 635.265625 C 692.910156 634.113281 694.332031 632.605469 695.308594 630.652344 C 696.195312 628.519531 696.726562 626.210938 696.726562 623.550781 Z M 696.726562 623.550781 " fill-opacity="1" fill-rule="nonzero"/><path fill="#ffffff" d="M 756.390625 603.664062 C 757.28125 603.664062 758.167969 604.019531 758.875 604.730469 C 759.585938 605.261719 759.941406 606.0625 759.941406 607.214844 L 759.941406 639.882812 C 759.941406 640.859375 759.585938 641.660156 758.875 642.367188 C 758.34375 643.078125 757.546875 643.433594 756.390625 643.433594 C 755.417969 643.433594 754.617188 643.257812 753.910156 642.722656 C 753.199219 642.011719 752.84375 641.125 752.84375 639.882812 L 752.84375 617.15625 L 743.617188 631.359375 C 743.085938 631.894531 742.640625 632.25 742.195312 632.425781 C 741.664062 632.691406 741.222656 632.78125 740.777344 632.78125 C 740.246094 632.78125 739.714844 632.691406 739.003906 632.425781 C 738.472656 632.25 738.117188 631.894531 737.9375 631.359375 L 728.355469 616.449219 L 728.355469 639.882812 C 728.355469 641.125 728 642.011719 727.292969 642.722656 C 726.761719 643.257812 726.050781 643.433594 725.164062 643.433594 C 724.1875 643.433594 723.386719 643.078125 722.679688 642.367188 C 722.144531 641.660156 721.96875 640.859375 721.96875 639.882812 L 721.96875 607.214844 C 721.96875 606.328125 722.324219 605.441406 723.035156 604.730469 C 723.742188 604.019531 724.542969 603.664062 725.519531 603.664062 C 725.960938 603.664062 726.40625 603.84375 726.9375 604.019531 C 727.648438 604.285156 728.179688 604.640625 728.710938 605.085938 L 740.777344 624.257812 L 753.554688 605.085938 C 753.996094 604.640625 754.441406 604.285156 754.972656 604.019531 C 755.417969 603.84375 755.859375 603.664062 756.390625 603.664062 Z M 756.390625 603.664062 " fill-opacity="1" fill-rule="nonzero"/><path fill="#ffffff" d="M 814.132812 603.664062 C 815.019531 603.664062 815.90625 604.019531 816.617188 604.730469 C 817.324219 605.261719 817.679688 606.0625 817.679688 607.214844 L 817.679688 639.882812 C 817.679688 640.859375 817.324219 641.660156 816.617188 642.367188 C 816.082031 643.078125 815.285156 643.433594 814.132812 643.433594 C 813.15625 643.433594 812.355469 643.257812 811.648438 642.722656 C 810.9375 642.011719 810.582031 641.125 810.582031 639.882812 L 810.582031 617.15625 L 801.355469 631.359375 C 800.824219 631.894531 800.378906 632.25 799.9375 632.425781 C 799.402344 632.691406 798.960938 632.78125 798.515625 632.78125 C 797.984375 632.78125 797.453125 632.691406 796.742188 632.425781 C 796.210938 632.25 795.855469 631.894531 795.675781 631.359375 L 786.09375 616.449219 L 786.09375 639.882812 C 786.09375 641.125 785.742188 642.011719 785.03125 642.722656 C 784.5 643.257812 783.789062 643.433594 782.902344 643.433594 C 781.925781 643.433594 781.128906 643.078125 780.417969 642.367188 C 779.886719 641.660156 779.707031 640.859375 779.707031 639.882812 L 779.707031 607.214844 C 779.707031 606.328125 780.0625 605.441406 780.773438 604.730469 C 781.480469 604.019531 782.28125 603.664062 783.257812 603.664062 C 783.699219 603.664062 784.144531 603.84375 784.675781 604.019531 C 785.386719 604.285156 785.917969 604.640625 786.449219 605.085938 L 798.515625 624.257812 L 811.292969 605.085938 C 811.734375 604.640625 812.179688 604.285156 812.710938 604.019531 C 813.15625 603.84375 813.597656 603.664062 814.132812 603.664062 Z M 814.132812 603.664062 " fill-opacity="1" fill-rule="nonzero"/><path fill="#ffffff" d="M 865.835938 603.664062 C 866.722656 603.664062 867.433594 604.019531 867.964844 604.730469 C 868.675781 605.261719 869.03125 606.0625 869.03125 607.214844 L 869.03125 627.808594 C 869.03125 630.917969 868.320312 633.667969 866.902344 635.976562 C 865.660156 638.375 863.796875 640.238281 861.222656 641.660156 C 858.828125 643.078125 856.078125 643.789062 853.0625 643.789062 C 850.222656 643.789062 847.472656 643.078125 844.898438 641.660156 C 842.503906 640.238281 840.640625 638.375 839.222656 635.976562 C 837.980469 633.667969 837.445312 630.917969 837.445312 627.808594 L 837.445312 607.214844 C 837.445312 606.0625 837.800781 605.261719 838.511719 604.730469 C 839.222656 604.019531 840.019531 603.664062 840.996094 603.664062 C 841.882812 603.664062 842.769531 604.019531 843.480469 604.730469 C 844.1875 605.261719 844.542969 606.0625 844.542969 607.214844 L 844.542969 627.808594 C 844.542969 629.496094 844.898438 631.007812 845.609375 632.425781 C 846.496094 633.847656 847.5625 635.089844 848.804688 635.976562 C 850.222656 636.6875 851.640625 637.042969 853.0625 637.042969 C 854.660156 637.042969 856.253906 636.6875 857.675781 635.976562 C 859.09375 635.089844 860.246094 633.847656 861.222656 632.425781 C 862.109375 631.007812 862.644531 629.496094 862.644531 627.808594 L 862.644531 607.214844 C 862.644531 606.0625 862.820312 605.261719 863.351562 604.730469 C 863.796875 604.019531 864.59375 603.664062 865.835938 603.664062 Z M 865.835938 603.664062 " fill-opacity="1" fill-rule="nonzero"/><path fill="#ffffff" d="M 918.898438 603.664062 C 919.785156 603.664062 920.496094 604.019531 921.027344 604.730469 C 921.738281 605.261719 922.089844 605.972656 922.089844 606.859375 L 922.089844 639.882812 C 922.089844 640.859375 921.738281 641.660156 921.027344 642.367188 C 920.316406 643.078125 919.429688 643.433594 918.542969 643.433594 C 918.011719 643.433594 917.476562 643.433594 916.769531 643.433594 C 916.234375 643.257812 915.878906 642.902344 915.703125 642.367188 L 895.121094 616.09375 L 895.121094 640.238281 C 895.121094 641.214844 894.765625 642.011719 894.054688 642.722656 C 893.523438 643.257812 892.8125 643.433594 891.925781 643.433594 C 890.949219 643.433594 890.152344 643.257812 889.441406 642.722656 C 888.910156 642.011719 888.730469 641.214844 888.730469 640.238281 L 888.730469 607.214844 C 888.730469 606.328125 889.085938 605.441406 889.796875 604.730469 C 890.507812 604.019531 891.304688 603.664062 892.28125 603.664062 C 892.726562 603.664062 893.167969 603.84375 893.699219 604.019531 C 894.410156 604.285156 894.855469 604.640625 895.121094 605.085938 L 915.703125 631.359375 L 915.703125 606.859375 C 915.703125 605.972656 915.878906 605.261719 916.414062 604.730469 C 917.121094 604.019531 917.921875 603.664062 918.898438 603.664062 Z M 918.898438 603.664062 " fill-opacity="1" fill-rule="nonzero"/><path fill="#ffffff" d="M 948.8125 639.882812 C 948.8125 640.859375 948.460938 641.660156 947.75 642.367188 C 947.039062 643.078125 946.152344 643.433594 945.265625 643.433594 C 944.289062 643.433594 943.492188 643.078125 942.78125 642.367188 C 942.070312 641.660156 941.714844 640.859375 941.714844 639.882812 L 941.714844 607.214844 C 941.714844 606.328125 942.070312 605.441406 942.78125 604.730469 C 943.492188 604.019531 944.289062 603.664062 945.265625 603.664062 C 946.152344 603.664062 947.039062 604.019531 947.75 604.730469 C 948.460938 605.441406 948.8125 606.328125 948.8125 607.214844 Z M 948.8125 639.882812 " fill-opacity="1" fill-rule="nonzero"/><path fill="#ffffff" d="M 994.921875 603.664062 C 995.808594 603.664062 996.519531 604.019531 997.050781 604.730469 C 997.761719 605.261719 998.117188 605.972656 998.117188 606.859375 C 998.117188 607.835938 997.761719 608.636719 997.050781 609.347656 C 996.519531 609.878906 995.808594 610.054688 994.921875 610.054688 L 985.695312 610.054688 L 985.695312 639.882812 C 985.695312 640.859375 985.339844 641.660156 984.628906 642.367188 C 983.921875 643.078125 983.035156 643.433594 982.148438 643.433594 C 980.90625 643.433594 980.015625 643.078125 979.308594 642.367188 C 978.773438 641.660156 978.597656 640.859375 978.597656 639.882812 L 978.597656 610.054688 L 969.726562 610.054688 C 968.484375 610.054688 967.597656 609.878906 966.886719 609.347656 C 966.355469 608.636719 966.175781 607.835938 966.175781 606.859375 C 966.175781 605.972656 966.355469 605.261719 966.886719 604.730469 C 967.597656 604.019531 968.484375 603.664062 969.726562 603.664062 Z M 994.921875 603.664062 " fill-opacity="1" fill-rule="nonzero"/><path fill="#ffffff" d="M 1044.21875 606.859375 C 1044.21875 607.835938 1043.953125 608.546875 1043.511719 608.992188 L 1031.800781 626.035156 L 1031.800781 639.882812 C 1031.800781 640.859375 1031.445312 641.660156 1030.734375 642.367188 C 1030.023438 643.078125 1029.136719 643.433594 1028.25 643.433594 C 1027.273438 643.433594 1026.476562 643.078125 1025.765625 642.367188 C 1025.234375 641.660156 1025.058594 640.859375 1025.058594 639.882812 L 1025.058594 625.324219 L 1013.34375 609.703125 C 1012.636719 608.8125 1012.28125 607.835938 1012.28125 606.859375 C 1012.28125 605.972656 1012.636719 605.261719 1013.34375 604.730469 C 1014.054688 604.019531 1014.855469 603.664062 1015.828125 603.664062 C 1016.71875 603.664062 1017.691406 604.199219 1018.667969 605.085938 L 1028.605469 618.933594 L 1037.832031 605.085938 C 1038.71875 604.199219 1039.695312 603.664062 1040.671875 603.664062 C 1041.558594 603.664062 1042.445312 604.019531 1043.15625 604.730469 C 1043.867188 605.261719 1044.21875 605.972656 1044.21875 606.859375 Z M 1044.21875 606.859375 " fill-opacity="1" fill-rule="nonzero"/><path fill="#ffffff" d="M 1115.5 605.441406 C 1116.652344 606.152344 1117.273438 607.214844 1117.273438 608.636719 C 1117.273438 609.347656 1117.007812 610.054688 1116.5625 610.765625 C 1115.855469 611.742188 1114.964844 612.1875 1114.078125 612.1875 C 1113.546875 612.1875 1113.015625 612.007812 1112.304688 611.476562 C 1110.351562 610.589844 1108.402344 610.054688 1106.273438 610.054688 C 1103.609375 610.054688 1101.304688 610.675781 1099.175781 611.832031 C 1097.222656 613.074219 1095.714844 614.671875 1094.5625 616.804688 C 1093.585938 618.753906 1093.140625 620.976562 1093.140625 623.550781 C 1093.140625 628.078125 1094.292969 631.539062 1096.691406 633.847656 C 1099.261719 635.976562 1102.457031 637.042969 1106.273438 637.042969 C 1108.578125 637.042969 1110.621094 636.6875 1112.304688 635.976562 C 1113.015625 635.53125 1113.546875 635.265625 1114.078125 635.265625 C 1114.964844 635.265625 1115.855469 635.800781 1116.5625 636.6875 C 1117.273438 637.398438 1117.628906 638.285156 1117.628906 639.171875 C 1117.628906 639.707031 1117.363281 640.148438 1116.917969 640.59375 C 1116.652344 641.125 1116.296875 641.480469 1115.855469 641.660156 C 1112.75 643.34375 1109.554688 644.144531 1106.273438 644.144531 C 1102.457031 644.144531 1098.996094 643.34375 1095.980469 641.660156 C 1092.875 640.058594 1090.390625 637.664062 1088.527344 634.558594 C 1086.574219 631.539062 1085.6875 627.808594 1085.6875 623.550781 C 1085.6875 619.820312 1086.488281 616.359375 1088.171875 613.253906 C 1090.035156 610.234375 1092.519531 607.835938 1095.625 606.152344 C 1098.910156 604.285156 1102.457031 603.308594 1106.273438 603.308594 C 1109.554688 603.308594 1112.660156 604.019531 1115.5 605.441406 Z M 1115.5 605.441406 " fill-opacity="1" fill-rule="nonzero"/><path fill="#ffffff" d="M 1165.917969 639.171875 C 1166.09375 639.707031 1166.273438 640.058594 1166.273438 640.238281 C 1166.273438 641.480469 1165.917969 642.367188 1165.207031 643.078125 C 1164.5 643.523438 1163.789062 643.789062 1163.078125 643.789062 C 1162.371094 643.789062 1161.660156 643.523438 1160.949219 643.078125 C 1160.417969 642.632812 1160.0625 642.011719 1159.886719 641.304688 L 1157.046875 634.558594 L 1140.011719 634.558594 L 1137.171875 641.304688 C 1136.640625 642.011719 1136.195312 642.632812 1135.753906 643.078125 C 1135.222656 643.523438 1134.6875 643.789062 1133.980469 643.789062 C 1133.003906 643.789062 1132.292969 643.523438 1131.847656 643.078125 C 1131.316406 642.367188 1131.140625 641.570312 1131.140625 640.59375 C 1131.140625 640.414062 1131.140625 640.058594 1131.140625 639.527344 L 1145.335938 605.796875 C 1145.511719 605.085938 1145.867188 604.550781 1146.398438 604.019531 C 1147.109375 603.574219 1147.90625 603.308594 1148.882812 603.308594 C 1149.328125 603.308594 1149.769531 603.574219 1150.304688 604.019531 C 1151.011719 604.550781 1151.457031 605.085938 1151.722656 605.796875 Z M 1142.851562 627.808594 L 1154.207031 627.808594 L 1148.527344 614.671875 Z M 1142.851562 627.808594 " fill-opacity="1" fill-rule="nonzero"/><path fill="#ffffff" d="M 1213.46875 637.753906 C 1213.910156 638.285156 1214.265625 638.730469 1214.53125 639.171875 C 1214.710938 639.707031 1214.886719 640.148438 1214.886719 640.59375 C 1214.886719 641.304688 1214.621094 641.925781 1214.175781 642.367188 C 1213.644531 643.078125 1212.847656 643.433594 1211.695312 643.433594 C 1210.71875 643.433594 1209.917969 643.257812 1209.210938 642.722656 C 1206.371094 641.304688 1204.949219 638.285156 1204.949219 633.492188 C 1204.949219 632.070312 1204.417969 631.007812 1203.53125 630.296875 C 1202.820312 629.40625 1201.578125 628.875 1199.980469 628.875 L 1189.335938 628.875 L 1189.335938 639.882812 C 1189.335938 641.125 1188.980469 642.011719 1188.269531 642.722656 C 1187.738281 643.257812 1187.207031 643.433594 1186.496094 643.433594 C 1185.253906 643.433594 1184.191406 643.078125 1183.304688 642.367188 C 1182.59375 641.660156 1182.238281 640.859375 1182.238281 639.882812 L 1182.238281 607.214844 C 1182.238281 606.328125 1182.59375 605.441406 1183.304688 604.730469 C 1184.011719 604.019531 1184.8125 603.664062 1185.785156 603.664062 L 1202.113281 603.664062 C 1203.976562 603.664062 1205.75 604.285156 1207.433594 605.441406 C 1209.296875 606.417969 1210.71875 607.835938 1211.695312 609.703125 C 1212.847656 611.652344 1213.46875 613.605469 1213.46875 615.738281 C 1213.46875 617.691406 1212.847656 619.554688 1211.695312 621.417969 C 1210.71875 623.371094 1209.386719 624.792969 1207.789062 625.679688 C 1210.097656 627.367188 1211.425781 629.585938 1211.695312 632.425781 C 1211.871094 633.136719 1212.046875 633.757812 1212.046875 634.203125 C 1212.046875 635.445312 1212.136719 636.242188 1212.402344 636.6875 C 1212.582031 637.21875 1212.933594 637.574219 1213.46875 637.753906 Z M 1201.757812 623.195312 C 1202.464844 623.195312 1203 622.839844 1203.53125 622.128906 C 1204.242188 621.417969 1204.773438 620.621094 1205.304688 619.644531 C 1205.75 618.488281 1206.015625 617.335938 1206.015625 616.09375 C 1206.015625 614.9375 1205.75 613.960938 1205.304688 613.253906 C 1204.773438 612.363281 1204.242188 611.652344 1203.53125 611.121094 C 1203 610.410156 1202.464844 610.054688 1201.757812 610.054688 L 1189.335938 610.054688 L 1189.335938 623.195312 Z M 1201.757812 623.195312 " fill-opacity="1" fill-rule="nonzero"/><path fill="#ffffff" d="M 1254.863281 637.042969 C 1256.015625 637.042969 1256.816406 637.398438 1257.347656 638.109375 C 1258.054688 638.640625 1258.410156 639.351562 1258.410156 640.238281 C 1258.410156 641.214844 1258.054688 642.011719 1257.347656 642.722656 C 1256.816406 643.257812 1256.015625 643.433594 1254.863281 643.433594 L 1236.054688 643.433594 C 1235.078125 643.433594 1234.28125 643.078125 1233.570312 642.367188 C 1232.859375 641.660156 1232.503906 640.859375 1232.503906 639.882812 L 1232.503906 607.214844 C 1232.503906 606.328125 1232.859375 605.441406 1233.570312 604.730469 C 1234.28125 604.019531 1235.078125 603.664062 1236.054688 603.664062 L 1254.863281 603.664062 C 1256.015625 603.664062 1256.816406 604.019531 1257.347656 604.730469 C 1258.054688 605.261719 1258.410156 605.972656 1258.410156 606.859375 C 1258.410156 607.835938 1258.054688 608.636719 1257.347656 609.347656 C 1256.816406 609.878906 1256.015625 610.054688 1254.863281 610.054688 L 1239.601562 610.054688 L 1239.601562 620 L 1252.378906 620 C 1253.265625 620 1254.152344 620.355469 1254.863281 621.0625 C 1255.574219 621.597656 1255.925781 622.304688 1255.925781 623.195312 C 1255.925781 624.171875 1255.574219 624.96875 1254.863281 625.679688 C 1254.152344 626.210938 1253.265625 626.390625 1252.378906 626.390625 L 1239.601562 626.390625 L 1239.601562 637.042969 Z M 1254.863281 637.042969 " fill-opacity="1" fill-rule="nonzero"/><g clip-path="url(#c529586c51)"><path fill="#ffffff" d="M 990.460938 483.15625 C 990.460938 486.265625 989.394531 488.839844 987.441406 491.058594 C 985.402344 493.277344 983.007812 494.34375 980.167969 494.34375 C 977.328125 494.34375 974.933594 493.277344 972.894531 491.058594 C 970.941406 488.839844 969.964844 486.265625 969.964844 483.15625 C 969.964844 480.050781 970.941406 477.386719 972.894531 475.167969 C 974.933594 473.039062 977.328125 471.882812 980.167969 471.882812 C 983.007812 471.882812 985.402344 473.039062 987.441406 475.167969 C 989.394531 477.386719 990.460938 480.050781 990.460938 483.15625 Z M 990.460938 483.15625 " fill-opacity="1" fill-rule="nonzero"/></g><path fill="#ffffff" d="M 984.957031 521.242188 L 975.730469 521.242188 C 973.160156 521.242188 971.117188 519.199219 971.117188 516.625 L 971.117188 498.25 C 971.117188 495.761719 973.160156 493.632812 975.730469 493.632812 L 984.957031 493.632812 C 987.53125 493.632812 989.570312 495.761719 989.570312 498.25 L 989.570312 516.625 C 989.570312 519.199219 987.53125 521.242188 984.957031 521.242188 Z M 984.957031 521.242188 " fill-opacity="1" fill-rule="nonzero"/><g clip-path="url(#343f537b1c)"><path fill="#ffffff" d="M 974.667969 496.207031 L 957.1875 503.664062 C 955.59375 504.285156 953.730469 503.664062 952.929688 502.15625 C 952.21875 500.734375 952.929688 498.960938 954.527344 498.25 L 972.003906 490.792969 C 973.601562 490.171875 975.464844 490.792969 976.175781 492.300781 C 976.972656 493.808594 976.265625 495.585938 974.667969 496.207031 Z M 974.667969 496.207031 " fill-opacity="1" fill-rule="nonzero"/></g><path fill="#ffffff" d="M 985.667969 495.585938 L 1004.476562 503.664062 C 1006.074219 504.285156 1008.027344 503.664062 1008.734375 502.15625 C 1009.445312 500.644531 1008.734375 498.960938 1007.140625 498.25 L 988.328125 490.257812 C 986.734375 489.550781 984.871094 490.171875 984.070312 491.679688 C 983.363281 493.1875 984.070312 494.964844 985.667969 495.585938 Z M 985.667969 495.585938 " fill-opacity="1" fill-rule="nonzero"/><g clip-path="url(#36c3129682)"><path fill="#ffffff" d="M 966.59375 539.082031 C 964.640625 538.460938 963.664062 536.417969 964.375 534.644531 L 971.207031 518.042969 C 971.917969 516.269531 974.046875 515.292969 975.910156 516.003906 C 977.859375 516.714844 978.835938 518.664062 978.128906 520.441406 L 971.296875 537.128906 C 970.585938 538.90625 968.457031 539.792969 966.59375 539.082031 Z M 966.59375 539.082031 " fill-opacity="1" fill-rule="nonzero"/></g><g clip-path="url(#3b8e314336)"><path fill="#ffffff" d="M 994.273438 539.082031 C 996.226562 538.460938 997.203125 536.417969 996.492188 534.644531 L 989.660156 517.957031 C 988.949219 516.179688 986.820312 515.292969 984.957031 516.003906 C 983.007812 516.625 982.03125 518.664062 982.742188 520.441406 L 989.570312 537.128906 C 990.28125 538.816406 992.410156 539.792969 994.273438 539.082031 Z M 994.273438 539.082031 " fill-opacity="1" fill-rule="nonzero"/></g><path fill="#ffffff" d="M 1103.222656 483.335938 C 1103.222656 486.441406 1102.246094 489.015625 1100.207031 491.234375 C 1098.253906 493.457031 1095.769531 494.519531 1093.019531 494.519531 C 1090.179688 494.519531 1087.785156 493.457031 1085.746094 491.234375 C 1083.703125 489.015625 1082.730469 486.441406 1082.730469 483.335938 C 1082.730469 480.230469 1083.703125 477.566406 1085.746094 475.347656 C 1087.785156 473.214844 1090.179688 472.0625 1093.019531 472.0625 C 1095.769531 472.0625 1098.253906 473.214844 1100.207031 475.347656 C 1102.246094 477.566406 1103.222656 480.230469 1103.222656 483.335938 Z M 1103.222656 483.335938 " fill-opacity="1" fill-rule="nonzero"/><path fill="#ffffff" d="M 1097.8125 521.417969 L 1088.585938 521.417969 C 1086.011719 521.417969 1083.882812 519.375 1083.882812 516.800781 L 1083.882812 498.425781 C 1083.882812 495.851562 1086.011719 493.808594 1088.585938 493.808594 L 1097.8125 493.808594 C 1100.296875 493.808594 1102.425781 495.851562 1102.425781 498.425781 L 1102.425781 516.800781 C 1102.425781 519.375 1100.296875 521.417969 1097.8125 521.417969 Z M 1097.8125 521.417969 " fill-opacity="1" fill-rule="nonzero"/><path fill="#ffffff" d="M 1087.429688 496.386719 L 1070.042969 503.839844 C 1068.445312 504.460938 1066.492188 503.839844 1065.78125 502.332031 C 1065.074219 500.824219 1065.78125 499.136719 1067.378906 498.425781 L 1084.769531 490.96875 C 1086.367188 490.347656 1088.316406 490.96875 1089.027344 492.480469 C 1089.738281 493.988281 1089.027344 495.761719 1087.429688 496.386719 Z M 1087.429688 496.386719 " fill-opacity="1" fill-rule="nonzero"/><path fill="#ffffff" d="M 1098.519531 495.761719 L 1117.328125 503.839844 C 1118.925781 504.460938 1120.789062 503.839844 1121.589844 502.332031 C 1122.296875 500.824219 1121.589844 499.046875 1119.992188 498.425781 L 1101.183594 490.4375 C 1099.585938 489.726562 1097.632812 490.347656 1096.925781 491.859375 C 1096.214844 493.367188 1096.925781 495.140625 1098.519531 495.761719 Z M 1098.519531 495.761719 " fill-opacity="1" fill-rule="nonzero"/><g clip-path="url(#ebfa213810)"><path fill="#ffffff" d="M 1079.359375 539.261719 C 1077.496094 538.640625 1076.519531 536.597656 1077.226562 534.820312 L 1083.972656 518.222656 C 1084.679688 516.445312 1086.898438 515.46875 1088.761719 516.179688 C 1090.625 516.800781 1091.601562 518.84375 1090.890625 520.617188 L 1084.148438 537.308594 C 1083.4375 539.082031 1081.308594 539.96875 1079.359375 539.261719 Z M 1079.359375 539.261719 " fill-opacity="1" fill-rule="nonzero"/></g><g clip-path="url(#b4e25e6c75)"><path fill="#ffffff" d="M 1107.128906 539.261719 C 1108.988281 538.550781 1109.964844 536.597656 1109.257812 534.820312 L 1102.511719 518.132812 C 1101.804688 516.359375 1099.675781 515.46875 1097.722656 516.179688 C 1095.859375 516.800781 1094.882812 518.84375 1095.59375 520.617188 L 1102.335938 537.21875 C 1103.046875 538.996094 1105.175781 539.882812 1107.128906 539.261719 Z M 1107.128906 539.261719 " fill-opacity="1" fill-rule="nonzero"/></g><g clip-path="url(#c05a8e6a7a)"><path fill="#5eb090" d="M 1159.382812 483.246094 C 1159.382812 486.355469 1158.40625 488.929688 1156.367188 491.148438 C 1154.414062 493.367188 1152.019531 494.433594 1149.179688 494.433594 C 1146.339844 494.433594 1143.945312 493.367188 1141.90625 491.148438 C 1139.953125 488.929688 1138.890625 486.355469 1138.890625 483.246094 C 1138.890625 480.140625 1139.953125 477.476562 1141.90625 475.257812 C 1143.945312 473.128906 1146.339844 471.972656 1149.179688 471.972656 C 1152.019531 471.972656 1154.414062 473.128906 1156.367188 475.257812 C 1158.40625 477.476562 1159.382812 480.140625 1159.382812 483.246094 Z M 1159.382812 483.246094 " fill-opacity="1" fill-rule="nonzero"/></g><path fill="#5eb090" d="M 1153.972656 521.328125 L 1144.746094 521.328125 C 1142.171875 521.328125 1140.132812 519.289062 1140.132812 516.714844 L 1140.132812 498.335938 C 1140.132812 495.761719 1142.171875 493.722656 1144.746094 493.722656 L 1153.972656 493.722656 C 1156.542969 493.722656 1158.585938 495.851562 1158.585938 498.335938 L 1158.585938 516.714844 C 1158.585938 519.289062 1156.542969 521.328125 1153.972656 521.328125 Z M 1153.972656 521.328125 " fill-opacity="1" fill-rule="nonzero"/><path fill="#5eb090" d="M 1143.589844 496.296875 L 1126.203125 503.753906 C 1124.605469 504.375 1122.652344 503.753906 1121.945312 502.242188 C 1121.234375 500.824219 1121.945312 499.046875 1123.539062 498.335938 L 1140.929688 490.882812 C 1142.527344 490.257812 1144.476562 490.882812 1145.1875 492.390625 C 1145.898438 493.898438 1145.1875 495.675781 1143.589844 496.296875 Z M 1143.589844 496.296875 " fill-opacity="1" fill-rule="nonzero"/><path fill="#5eb090" d="M 1154.679688 495.675781 L 1173.488281 503.753906 C 1175.085938 504.375 1177.039062 503.753906 1177.75 502.242188 C 1178.457031 500.734375 1177.75 498.960938 1176.152344 498.335938 L 1157.34375 490.347656 C 1155.746094 489.636719 1153.792969 490.257812 1153.085938 491.769531 C 1152.375 493.277344 1153.085938 495.054688 1154.679688 495.675781 Z M 1154.679688 495.675781 " fill-opacity="1" fill-rule="nonzero"/><g clip-path="url(#d76ba19e07)"><path fill="#5eb090" d="M 1135.519531 539.171875 C 1133.65625 538.550781 1132.679688 536.507812 1133.386719 534.734375 L 1140.132812 518.132812 C 1140.929688 516.359375 1143.058594 515.382812 1144.921875 516.089844 C 1146.875 516.714844 1147.851562 518.753906 1147.140625 520.53125 L 1140.308594 537.21875 C 1139.597656 538.996094 1137.46875 539.882812 1135.519531 539.171875 Z M 1135.519531 539.171875 " fill-opacity="1" fill-rule="nonzero"/></g><g clip-path="url(#9e462d753e)"><path fill="#5eb090" d="M 1163.289062 539.171875 C 1165.238281 538.460938 1166.214844 536.507812 1165.503906 534.734375 L 1158.671875 518.042969 C 1157.964844 516.269531 1155.835938 515.382812 1153.882812 516.089844 C 1152.019531 516.714844 1151.042969 518.753906 1151.753906 520.53125 L 1158.496094 537.128906 C 1159.207031 538.90625 1161.425781 539.882812 1163.289062 539.171875 Z M 1163.289062 539.171875 " fill-opacity="1" fill-rule="nonzero"/></g><g clip-path="url(#6259580e4b)"><path fill="#ffffff" d="M 1215.988281 482.980469 C 1215.988281 486.085938 1215.011719 488.75 1212.972656 490.882812 C 1211.019531 493.101562 1208.535156 494.164062 1205.695312 494.164062 C 1202.945312 494.164062 1200.460938 493.101562 1198.507812 490.882812 C 1196.46875 488.75 1195.492188 486.085938 1195.492188 482.980469 C 1195.492188 479.875 1196.46875 477.210938 1198.507812 475.082031 C 1200.460938 472.859375 1202.945312 471.796875 1205.695312 471.796875 C 1208.535156 471.796875 1211.019531 472.859375 1212.972656 475.082031 C 1215.011719 477.210938 1215.988281 479.875 1215.988281 482.980469 Z M 1215.988281 482.980469 " fill-opacity="1" fill-rule="nonzero"/></g><path fill="#ffffff" d="M 1210.574219 521.0625 L 1201.257812 521.0625 C 1198.777344 521.0625 1196.644531 519.019531 1196.644531 516.445312 L 1196.644531 498.070312 C 1196.644531 495.585938 1198.777344 493.457031 1201.257812 493.457031 L 1210.574219 493.457031 C 1213.058594 493.457031 1215.1875 495.585938 1215.1875 498.070312 L 1215.1875 516.445312 C 1215.1875 519.019531 1213.058594 521.0625 1210.574219 521.0625 Z M 1210.574219 521.0625 " fill-opacity="1" fill-rule="nonzero"/><path fill="#ffffff" d="M 1200.195312 496.117188 L 1182.804688 503.488281 C 1181.121094 504.195312 1179.257812 503.488281 1178.546875 502.066406 C 1177.75 500.558594 1178.457031 498.78125 1180.054688 498.070312 L 1197.535156 490.703125 C 1199.128906 489.992188 1200.992188 490.613281 1201.792969 492.125 C 1202.5 493.632812 1201.792969 495.410156 1200.195312 496.117188 Z M 1200.195312 496.117188 " fill-opacity="1" fill-rule="nonzero"/><g clip-path="url(#e7400bf335)"><path fill="#ffffff" d="M 1211.195312 495.496094 L 1230.09375 503.488281 C 1231.691406 504.195312 1233.554688 503.488281 1234.265625 501.976562 C 1235.0625 500.558594 1234.351562 498.78125 1232.753906 498.070312 L 1213.945312 490.082031 C 1212.261719 489.371094 1210.398438 490.082031 1209.6875 491.503906 C 1208.890625 493.011719 1209.597656 494.785156 1211.195312 495.496094 Z M 1211.195312 495.496094 " fill-opacity="1" fill-rule="nonzero"/></g><g clip-path="url(#24a6fa1c0b)"><path fill="#ffffff" d="M 1192.121094 538.996094 C 1190.167969 538.285156 1189.195312 536.332031 1189.992188 534.554688 L 1196.734375 517.867188 C 1197.445312 516.089844 1199.574219 515.203125 1201.527344 515.824219 C 1203.390625 516.535156 1204.363281 518.488281 1203.65625 520.265625 L 1196.914062 536.953125 C 1196.203125 538.726562 1193.984375 539.617188 1192.121094 538.996094 Z M 1192.121094 538.996094 " fill-opacity="1" fill-rule="nonzero"/></g><g clip-path="url(#75ef91e174)"><path fill="#ffffff" d="M 1219.890625 538.90625 C 1221.753906 538.285156 1222.730469 536.242188 1222.019531 534.46875 L 1215.277344 517.867188 C 1214.566406 516.089844 1212.351562 515.203125 1210.488281 515.824219 C 1208.535156 516.535156 1207.558594 518.488281 1208.355469 520.265625 L 1215.101562 536.953125 C 1215.808594 538.726562 1217.9375 539.617188 1219.890625 538.90625 Z M 1219.890625 538.90625 " fill-opacity="1" fill-rule="nonzero"/></g><path fill="#5eb090" d="M 1046.886719 483.335938 C 1046.886719 486.441406 1045.910156 489.015625 1043.871094 491.234375 C 1041.917969 493.457031 1039.523438 494.519531 1036.683594 494.519531 C 1033.84375 494.519531 1031.449219 493.457031 1029.40625 491.234375 C 1027.457031 489.015625 1026.390625 486.441406 1026.390625 483.335938 C 1026.390625 480.230469 1027.457031 477.566406 1029.40625 475.347656 C 1031.449219 473.214844 1033.84375 472.0625 1036.683594 472.0625 C 1039.523438 472.0625 1041.917969 473.214844 1043.871094 475.347656 C 1045.910156 477.566406 1046.886719 480.230469 1046.886719 483.335938 Z M 1046.886719 483.335938 " fill-opacity="1" fill-rule="nonzero"/><path fill="#5eb090" d="M 1041.472656 521.417969 L 1032.246094 521.417969 C 1029.675781 521.417969 1027.632812 519.375 1027.632812 516.800781 L 1027.632812 498.425781 C 1027.632812 495.851562 1029.675781 493.808594 1032.246094 493.808594 L 1041.472656 493.808594 C 1043.957031 493.808594 1046.085938 495.851562 1046.085938 498.425781 L 1046.085938 516.800781 C 1046.085938 519.375 1043.957031 521.417969 1041.472656 521.417969 Z M 1041.472656 521.417969 " fill-opacity="1" fill-rule="nonzero"/><path fill="#5eb090" d="M 1031.09375 496.386719 L 1013.703125 503.839844 C 1012.105469 504.460938 1010.15625 503.839844 1009.445312 502.332031 C 1008.734375 500.824219 1009.445312 499.136719 1011.042969 498.425781 L 1028.433594 490.96875 C 1030.027344 490.347656 1031.980469 490.96875 1032.691406 492.480469 C 1033.398438 493.988281 1032.691406 495.761719 1031.09375 496.386719 Z M 1031.09375 496.386719 " fill-opacity="1" fill-rule="nonzero"/><path fill="#5eb090" d="M 1042.183594 495.761719 L 1060.992188 503.839844 C 1062.589844 504.460938 1064.453125 503.839844 1065.25 502.332031 C 1065.960938 500.824219 1065.25 499.046875 1063.652344 498.425781 L 1044.84375 490.4375 C 1043.25 489.726562 1041.296875 490.347656 1040.585938 491.859375 C 1039.875 493.367188 1040.585938 495.140625 1042.183594 495.761719 Z M 1042.183594 495.761719 " fill-opacity="1" fill-rule="nonzero"/><g clip-path="url(#a207755d55)"><path fill="#5eb090" d="M 1023.019531 539.261719 C 1021.15625 538.640625 1020.179688 536.597656 1020.890625 534.820312 L 1027.632812 518.222656 C 1028.34375 516.445312 1030.5625 515.46875 1032.425781 516.179688 C 1034.375 516.800781 1035.351562 518.84375 1034.554688 520.617188 L 1027.8125 537.308594 C 1027.101562 539.082031 1024.972656 539.96875 1023.019531 539.261719 Z M 1023.019531 539.261719 " fill-opacity="1" fill-rule="nonzero"/></g><g clip-path="url(#fa757ed5e7)"><path fill="#5eb090" d="M 1050.789062 539.261719 C 1052.742188 538.550781 1053.71875 536.597656 1052.917969 534.820312 L 1046.175781 518.132812 C 1045.464844 516.359375 1043.335938 515.46875 1041.386719 516.179688 C 1039.523438 516.800781 1038.546875 518.84375 1039.253906 520.617188 L 1046 537.21875 C 1046.707031 538.996094 1048.925781 539.882812 1050.789062 539.261719 Z M 1050.789062 539.261719 " fill-opacity="1" fill-rule="nonzero"/></g><g fill="#ffffff" fill-opacity="1"><g transform="translate(736.221696, 385.032951)"><g><path d="M 19.390625 -43.609375 C 20.535156 -43.609375 21.691406 -43.523438 22.859375 -43.359375 C 24.023438 -43.191406 25.160156 -43 26.265625 -42.78125 C 26.867188 -42.65625 27.507812 -42.539062 28.1875 -42.4375 C 28.863281 -42.332031 29.242188 -42.28125 29.328125 -42.28125 C 29.960938 -42.144531 30.453125 -41.882812 30.796875 -41.5 C 31.140625 -41.125 31.566406 -40.382812 32.078125 -39.28125 L 32.84375 -37.6875 L 32.84375 -36.15625 C 32.84375 -35.175781 32.710938 -34.453125 32.453125 -33.984375 C 32.285156 -33.691406 32.050781 -33.363281 31.75 -33 C 31.457031 -32.632812 31.128906 -32.289062 30.765625 -31.96875 C 30.398438 -31.65625 30.023438 -31.378906 29.640625 -31.140625 C 29.265625 -30.910156 28.882812 -30.796875 28.5 -30.796875 C 28.25 -30.796875 27.941406 -30.859375 27.578125 -30.984375 C 27.210938 -31.117188 26.691406 -31.332031 26.015625 -31.625 C 24.359375 -32.519531 23.335938 -32.96875 22.953125 -32.96875 C 22.742188 -32.96875 22.550781 -33.050781 22.375 -33.21875 C 22.125 -33.4375 21.679688 -33.585938 21.046875 -33.671875 C 20.410156 -33.753906 19.878906 -33.753906 19.453125 -33.671875 C 18.347656 -33.453125 17.285156 -33.015625 16.265625 -32.359375 C 15.242188 -31.703125 14.519531 -30.84375 14.09375 -29.78125 C 13.539062 -28.375 13.5625 -27.222656 14.15625 -26.328125 C 14.363281 -25.992188 14.859375 -25.65625 15.640625 -25.3125 C 16.429688 -24.976562 17.296875 -24.648438 18.234375 -24.328125 C 19.171875 -24.003906 20.09375 -23.710938 21 -23.453125 C 21.914062 -23.203125 22.628906 -23.015625 23.140625 -22.890625 C 24.421875 -22.503906 25.6875 -22.003906 26.9375 -21.390625 C 28.195312 -20.773438 29.359375 -20.03125 30.421875 -19.15625 C 31.484375 -18.289062 32.414062 -17.316406 33.21875 -16.234375 C 34.03125 -15.148438 34.648438 -13.925781 35.078125 -12.5625 C 35.710938 -10.394531 35.773438 -8.226562 35.265625 -6.0625 C 34.753906 -3.894531 33.671875 -1.875 32.015625 0 C 28.648438 3.695312 23.71875 5.546875 17.21875 5.546875 C 16.195312 5.546875 14.992188 5.457031 13.609375 5.28125 C 12.234375 5.113281 10.863281 4.828125 9.5 4.421875 C 8.132812 4.023438 6.890625 3.492188 5.765625 2.828125 C 4.640625 2.171875 3.800781 1.332031 3.25 0.3125 C 3.125 0.0625 3.03125 -0.132812 2.96875 -0.28125 C 2.90625 -0.4375 2.847656 -0.597656 2.796875 -0.765625 C 2.753906 -0.929688 2.722656 -1.117188 2.703125 -1.328125 C 2.679688 -1.546875 2.671875 -1.867188 2.671875 -2.296875 C 2.671875 -3.398438 2.71875 -3.992188 2.8125 -4.078125 C 2.894531 -4.160156 2.9375 -4.289062 2.9375 -4.46875 C 2.9375 -4.59375 2.894531 -4.695312 2.8125 -4.78125 C 2.71875 -4.863281 2.691406 -5.097656 2.734375 -5.484375 C 2.785156 -5.867188 2.851562 -6.125 2.9375 -6.25 C 2.976562 -6.414062 2.976562 -6.566406 2.9375 -6.703125 C 2.851562 -6.785156 2.8125 -7.082031 2.8125 -7.59375 L 2.875 -8.296875 L 2.9375 -8.15625 C 3.019531 -7.988281 3.101562 -8.054688 3.1875 -8.359375 C 3.1875 -8.441406 3.207031 -8.503906 3.25 -8.546875 C 3.332031 -8.929688 3.394531 -9.25 3.4375 -9.5 C 3.4375 -9.800781 3.484375 -9.953125 3.578125 -9.953125 C 3.660156 -9.953125 3.703125 -9.882812 3.703125 -9.75 C 3.703125 -9.625 3.867188 -9.242188 4.203125 -8.609375 C 4.671875 -7.671875 5.34375 -6.816406 6.21875 -6.046875 C 7.09375 -5.285156 8.082031 -4.738281 9.1875 -4.40625 C 9.78125 -4.1875 10.5 -4.015625 11.34375 -3.890625 C 12.195312 -3.765625 13.050781 -3.703125 13.90625 -3.703125 C 14.664062 -3.703125 15.46875 -3.765625 16.3125 -3.890625 C 17.164062 -4.015625 17.992188 -4.210938 18.796875 -4.484375 C 19.609375 -4.765625 20.332031 -5.160156 20.96875 -5.671875 C 21.613281 -6.179688 22.082031 -6.820312 22.375 -7.59375 C 22.550781 -8.101562 22.648438 -8.71875 22.671875 -9.4375 C 22.691406 -10.15625 22.59375 -10.644531 22.375 -10.90625 C 22.082031 -11.238281 21.296875 -11.703125 20.015625 -12.296875 C 18.742188 -12.898438 16.914062 -13.625 14.53125 -14.46875 C 12.957031 -15.019531 11.648438 -15.539062 10.609375 -16.03125 C 9.578125 -16.519531 8.757812 -16.976562 8.15625 -17.40625 C 6.25 -18.769531 4.773438 -20.351562 3.734375 -22.15625 C 2.691406 -23.96875 2.171875 -26.0625 2.171875 -28.4375 C 2.171875 -29.71875 2.414062 -31.054688 2.90625 -32.453125 C 3.394531 -33.859375 4.0625 -35.175781 4.90625 -36.40625 C 5.757812 -37.644531 6.738281 -38.75 7.84375 -39.71875 C 8.945312 -40.695312 10.09375 -41.441406 11.28125 -41.953125 C 12.644531 -42.503906 13.972656 -42.914062 15.265625 -43.1875 C 16.566406 -43.46875 17.941406 -43.609375 19.390625 -43.609375 Z M 19.390625 -43.609375 "/></g></g></g><g fill="#ffffff" fill-opacity="1"><g transform="translate(773.777313, 385.032951)"><g><path d="M 21.484375 -12.046875 C 20.890625 -12.128906 20.304688 -12.117188 19.734375 -12.015625 C 19.160156 -11.910156 18.617188 -11.753906 18.109375 -11.546875 C 17.554688 -11.285156 16.9375 -10.941406 16.25 -10.515625 C 15.570312 -10.097656 15.128906 -9.738281 14.921875 -9.4375 C 14.453125 -8.84375 14.117188 -8.148438 13.921875 -7.359375 C 13.734375 -6.578125 13.75 -5.910156 13.96875 -5.359375 C 14.09375 -4.929688 14.410156 -4.632812 14.921875 -4.46875 C 16.148438 -3.875 17.40625 -3.742188 18.6875 -4.078125 C 19.363281 -4.203125 20.019531 -4.394531 20.65625 -4.65625 L 21.609375 -5.03125 L 21.6875 -7.015625 C 21.6875 -7.398438 21.6875 -7.890625 21.6875 -8.484375 C 21.6875 -9.078125 21.707031 -9.753906 21.75 -10.515625 L 21.875 -11.984375 Z M 17.984375 -31.8125 C 18.191406 -31.90625 19.144531 -31.90625 20.84375 -31.8125 C 22.46875 -31.8125 23.703125 -31.707031 24.546875 -31.5 C 25.273438 -31.289062 25.945312 -31.066406 26.5625 -30.828125 C 27.175781 -30.597656 27.675781 -30.351562 28.0625 -30.09375 C 30.519531 -28.476562 32.195312 -26.585938 33.09375 -24.421875 C 33.394531 -23.660156 33.609375 -22.769531 33.734375 -21.75 C 33.898438 -20 33.664062 -17.039062 33.03125 -12.875 C 32.6875 -10.75 32.453125 -9.046875 32.328125 -7.765625 C 32.203125 -6.492188 32.179688 -5.582031 32.265625 -5.03125 C 32.390625 -4.144531 32.644531 -3.359375 33.03125 -2.671875 C 33.113281 -2.585938 33.1875 -2.492188 33.25 -2.390625 C 33.3125 -2.285156 33.390625 -2.210938 33.484375 -2.171875 C 33.816406 -1.992188 34.289062 -2.109375 34.90625 -2.515625 C 35.53125 -2.921875 35.96875 -3.378906 36.21875 -3.890625 C 36.34375 -4.140625 36.425781 -4.273438 36.46875 -4.296875 C 36.507812 -4.328125 36.578125 -4.273438 36.671875 -4.140625 C 36.753906 -3.972656 36.816406 -3.910156 36.859375 -3.953125 L 36.921875 -3.828125 C 36.878906 -3.703125 36.859375 -3.46875 36.859375 -3.125 C 36.816406 -2.863281 36.804688 -2.703125 36.828125 -2.640625 C 36.847656 -2.578125 36.941406 -2.546875 37.109375 -2.546875 C 37.328125 -2.546875 37.367188 -2.503906 37.234375 -2.421875 C 37.148438 -2.335938 37.046875 -2.207031 36.921875 -2.03125 C 36.796875 -1.863281 36.664062 -1.613281 36.53125 -1.28125 C 36.195312 -0.59375 35.890625 0.0234375 35.609375 0.578125 C 35.335938 1.128906 35.03125 1.617188 34.6875 2.046875 C 34.175781 2.679688 33.554688 3.195312 32.828125 3.59375 C 32.109375 4 31.453125 4.25 30.859375 4.34375 C 30.523438 4.382812 30.300781 4.46875 30.1875 4.59375 C 30.082031 4.71875 29.988281 4.78125 29.90625 4.78125 C 29.78125 4.78125 29.695312 4.820312 29.65625 4.90625 C 29.613281 4.988281 29.25 5.050781 28.5625 5.09375 C 27.882812 5.1875 27.332031 5.101562 26.90625 4.84375 C 25.332031 4.082031 24.125 2.765625 23.28125 0.890625 L 22.828125 0.125 L 21.6875 1.21875 C 20.875 1.976562 20.171875 2.582031 19.578125 3.03125 C 18.984375 3.476562 18.453125 3.804688 17.984375 4.015625 C 16.617188 4.691406 15.109375 5.03125 13.453125 5.03125 C 12.472656 5.070312 11.601562 4.96875 10.84375 4.71875 C 9.5625 4.332031 8.367188 3.742188 7.265625 2.953125 C 6.160156 2.171875 5.289062 1.269531 4.65625 0.25 C 4.144531 -0.550781 3.785156 -1.269531 3.578125 -1.90625 C 3.359375 -2.632812 3.226562 -3.632812 3.1875 -4.90625 C 3.144531 -6.226562 3.207031 -7.289062 3.375 -8.09375 C 3.84375 -10.09375 5.015625 -12.007812 6.890625 -13.84375 C 7.265625 -14.21875 7.59375 -14.53125 7.875 -14.78125 C 8.15625 -15.039062 8.429688 -15.265625 8.703125 -15.453125 C 8.984375 -15.648438 9.289062 -15.84375 9.625 -16.03125 C 9.96875 -16.226562 10.414062 -16.453125 10.96875 -16.703125 C 12.375 -17.429688 14.070312 -17.972656 16.0625 -18.328125 C 18.0625 -18.691406 19.976562 -18.8125 21.8125 -18.6875 L 22.640625 -18.625 L 22.703125 -19.390625 C 22.742188 -20.578125 22.570312 -21.742188 22.1875 -22.890625 C 21.976562 -23.359375 21.722656 -23.675781 21.421875 -23.84375 C 21.128906 -24.019531 20.660156 -24.148438 20.015625 -24.234375 C 19.171875 -24.316406 18.160156 -24.226562 16.984375 -23.96875 C 15.816406 -23.71875 14.789062 -23.359375 13.90625 -22.890625 C 13.726562 -22.804688 13.535156 -22.675781 13.328125 -22.5 C 13.117188 -22.332031 12.882812 -22.144531 12.625 -21.9375 C 12.070312 -21.425781 11.796875 -21.148438 11.796875 -21.109375 C 11.796875 -21.023438 11.632812 -20.84375 11.3125 -20.5625 C 11 -20.289062 10.710938 -20.046875 10.453125 -19.828125 C 9.648438 -19.316406 8.953125 -19.171875 8.359375 -19.390625 C 7.585938 -19.679688 6.988281 -20.273438 6.5625 -21.171875 C 6.476562 -21.335938 6.382812 -21.492188 6.28125 -21.640625 C 6.175781 -21.796875 6.082031 -21.914062 6 -22 C 5.78125 -22.25 5.628906 -22.640625 5.546875 -23.171875 C 5.460938 -23.703125 5.378906 -24.078125 5.296875 -24.296875 C 5.035156 -24.765625 5.117188 -25.421875 5.546875 -26.265625 C 6.015625 -27.242188 6.566406 -27.90625 7.203125 -28.25 C 7.367188 -28.332031 7.523438 -28.414062 7.671875 -28.5 C 7.828125 -28.582031 7.96875 -28.691406 8.09375 -28.828125 C 8.351562 -29.035156 8.78125 -29.285156 9.375 -29.578125 C 9.96875 -29.878906 10.691406 -30.179688 11.546875 -30.484375 C 13.078125 -30.953125 14.796875 -31.332031 16.703125 -31.625 C 16.921875 -31.664062 17.175781 -31.707031 17.46875 -31.75 C 17.769531 -31.789062 17.941406 -31.8125 17.984375 -31.8125 Z M 17.984375 -31.8125 "/></g></g></g><g fill="#ffffff" fill-opacity="1"><g transform="translate(812.671922, 385.032951)"><g><path d="M 29.328125 -32.578125 C 29.546875 -32.671875 29.953125 -32.726562 30.546875 -32.75 C 31.140625 -32.769531 31.988281 -32.78125 33.09375 -32.78125 C 34.195312 -32.738281 35.066406 -32.691406 35.703125 -32.640625 C 36.347656 -32.597656 36.796875 -32.535156 37.046875 -32.453125 C 37.941406 -32.117188 38.554688 -31.648438 38.890625 -31.046875 C 39.109375 -30.671875 39.109375 -29.78125 38.890625 -28.375 C 38.847656 -27.90625 38.707031 -27.273438 38.46875 -26.484375 C 38.238281 -25.703125 37.953125 -24.875 37.609375 -24 C 37.273438 -23.132812 36.9375 -22.304688 36.59375 -21.515625 C 36.257812 -20.734375 35.984375 -20.109375 35.765625 -19.640625 C 35.429688 -18.960938 35.050781 -18.125 34.625 -17.125 C 34.195312 -16.125 33.75 -14.921875 33.28125 -13.515625 C 33.070312 -12.878906 32.628906 -11.898438 31.953125 -10.578125 C 31.179688 -9.140625 30.734375 -8.25 30.609375 -7.90625 C 30.566406 -7.820312 30.476562 -7.617188 30.34375 -7.296875 C 30.21875 -6.984375 30.03125 -6.59375 29.78125 -6.125 C 29.394531 -5.3125 29.078125 -4.609375 28.828125 -4.015625 C 27.847656 -1.972656 26.921875 -0.296875 26.046875 1.015625 C 25.171875 2.335938 24.351562 3.273438 23.59375 3.828125 C 23.164062 4.117188 22.71875 4.289062 22.25 4.34375 C 21.875 4.425781 21.523438 4.476562 21.203125 4.5 C 20.878906 4.519531 20.613281 4.570312 20.40625 4.65625 C 19.726562 4.78125 19.175781 4.84375 18.75 4.84375 C 18.195312 4.84375 17.566406 4.648438 16.859375 4.265625 C 16.160156 3.890625 15.597656 3.53125 15.171875 3.1875 C 15.046875 3.0625 14.941406 3 14.859375 3 C 14.773438 3 14.5625 2.773438 14.21875 2.328125 C 13.875 1.878906 13.617188 1.53125 13.453125 1.28125 C 13.367188 1.101562 13.285156 0.800781 13.203125 0.375 C 13.117188 0.125 12.914062 -0.5 12.59375 -1.5 C 12.269531 -2.5 11.8125 -3.847656 11.21875 -5.546875 C 10.625 -7.285156 10.09375 -8.859375 9.625 -10.265625 C 9.15625 -11.671875 8.6875 -12.96875 8.21875 -14.15625 C 5.84375 -20.789062 3.890625 -24.875 2.359375 -26.40625 C 2.273438 -26.488281 2.144531 -26.582031 1.96875 -26.6875 C 1.800781 -26.789062 1.613281 -26.925781 1.40625 -27.09375 C 1.0625 -27.394531 0.816406 -27.648438 0.671875 -27.859375 C 0.523438 -28.078125 0.492188 -28.3125 0.578125 -28.5625 C 0.617188 -28.863281 0.9375 -29.332031 1.53125 -29.96875 C 2.164062 -30.601562 2.632812 -30.941406 2.9375 -30.984375 C 3.269531 -31.078125 3.710938 -31.207031 4.265625 -31.375 C 4.816406 -31.539062 5.671875 -31.625 6.828125 -31.625 C 9.328125 -31.625 11.066406 -31.457031 12.046875 -31.125 C 12.773438 -30.863281 13.285156 -30.4375 13.578125 -29.84375 C 14.046875 -28.820312 14.546875 -27.648438 15.078125 -26.328125 C 15.609375 -25.015625 16.128906 -23.550781 16.640625 -21.9375 C 17.023438 -20.65625 17.40625 -19.332031 17.78125 -17.96875 C 18.164062 -16.613281 18.550781 -15.238281 18.9375 -13.84375 C 19.832031 -10.351562 20.300781 -8.609375 20.34375 -8.609375 C 20.507812 -8.609375 21.234375 -10.539062 22.515625 -14.40625 C 23.109375 -16.320312 23.648438 -18.117188 24.140625 -19.796875 C 24.628906 -21.472656 25.039062 -22.992188 25.375 -24.359375 C 25.71875 -25.585938 25.960938 -26.671875 26.109375 -27.609375 C 26.253906 -28.546875 26.375 -29.3125 26.46875 -29.90625 C 26.507812 -30.664062 26.613281 -31.15625 26.78125 -31.375 C 26.863281 -31.5 27.085938 -31.664062 27.453125 -31.875 C 27.816406 -32.09375 28.125 -32.203125 28.375 -32.203125 C 28.539062 -32.242188 28.707031 -32.296875 28.875 -32.359375 C 29.050781 -32.421875 29.203125 -32.492188 29.328125 -32.578125 Z M 29.328125 -32.578125 "/></g></g></g><g fill="#ffffff" fill-opacity="1"><g transform="translate(852.714236, 385.032951)"><g><path d="M 21.171875 -25 C 19.003906 -25 17.269531 -24.347656 15.96875 -23.046875 C 14.675781 -21.753906 13.664062 -20.171875 12.9375 -18.296875 L 12.5625 -17.28125 L 12.9375 -17.28125 C 13.445312 -17.28125 14.039062 -17.320312 14.71875 -17.40625 C 15.40625 -17.488281 16.109375 -17.59375 16.828125 -17.71875 C 17.554688 -17.851562 18.25 -17.992188 18.90625 -18.140625 C 19.5625 -18.285156 20.144531 -18.425781 20.65625 -18.5625 C 23.46875 -19.320312 24.875 -20.570312 24.875 -22.3125 C 24.875 -22.90625 24.765625 -23.375 24.546875 -23.71875 C 24.335938 -24.0625 24.0625 -24.328125 23.71875 -24.515625 C 23.375 -24.710938 22.976562 -24.84375 22.53125 -24.90625 C 22.09375 -24.96875 21.640625 -25 21.171875 -25 Z M 21.171875 -32.578125 C 23.460938 -32.578125 25.660156 -32.128906 27.765625 -31.234375 C 29.867188 -30.347656 31.601562 -28.882812 32.96875 -26.84375 C 34.15625 -25.101562 34.769531 -23.296875 34.8125 -21.421875 C 34.851562 -19.804688 34.515625 -18.273438 33.796875 -16.828125 C 33.410156 -16.191406 32.835938 -15.492188 32.078125 -14.734375 C 31.734375 -14.390625 31.421875 -14.097656 31.140625 -13.859375 C 30.867188 -13.628906 30.628906 -13.410156 30.421875 -13.203125 C 29.773438 -12.691406 28.828125 -12.242188 27.578125 -11.859375 C 26.328125 -11.472656 24.976562 -11.140625 23.53125 -10.859375 C 22.082031 -10.585938 20.664062 -10.390625 19.28125 -10.265625 C 17.90625 -10.140625 16.769531 -10.078125 15.875 -10.078125 C 14.976562 -10.035156 14.398438 -9.96875 14.140625 -9.875 C 13.890625 -9.789062 13.617188 -9.769531 13.328125 -9.8125 C 13.023438 -9.863281 12.789062 -9.863281 12.625 -9.8125 C 12.457031 -9.769531 12.363281 -9.71875 12.34375 -9.65625 C 12.320312 -9.59375 12.332031 -9.394531 12.375 -9.0625 C 12.457031 -8.039062 12.835938 -7.175781 13.515625 -6.46875 C 14.191406 -5.769531 15 -5.195312 15.9375 -4.75 C 16.875 -4.300781 17.875 -3.96875 18.9375 -3.75 C 20 -3.539062 20.957031 -3.4375 21.8125 -3.4375 C 24.488281 -3.4375 27.035156 -4.269531 29.453125 -5.9375 C 29.671875 -6.0625 29.894531 -6.238281 30.125 -6.46875 C 30.363281 -6.707031 30.578125 -6.941406 30.765625 -7.171875 C 30.953125 -7.410156 31.117188 -7.632812 31.265625 -7.84375 C 31.421875 -8.050781 31.5 -8.203125 31.5 -8.296875 C 31.5 -8.546875 31.601562 -8.566406 31.8125 -8.359375 C 31.988281 -8.222656 32.097656 -7.476562 32.140625 -6.125 C 32.179688 -5.394531 32.210938 -4.703125 32.234375 -4.046875 C 32.253906 -3.390625 32.242188 -2.742188 32.203125 -2.109375 C 32.203125 -0.742188 32.179688 0.0390625 32.140625 0.25 C 31.921875 1.351562 31.3125 2.234375 30.3125 2.890625 C 29.320312 3.554688 28.1875 4.066406 26.90625 4.421875 C 25.632812 4.785156 24.335938 5.03125 23.015625 5.15625 C 21.703125 5.289062 20.597656 5.359375 19.703125 5.359375 C 17.878906 5.316406 16.222656 5.164062 14.734375 4.90625 C 13.242188 4.65625 11.878906 4.207031 10.640625 3.5625 C 9.410156 2.925781 8.273438 2.066406 7.234375 0.984375 C 6.191406 -0.0976562 5.203125 -1.507812 4.265625 -3.25 C 2.691406 -6.269531 1.90625 -9.546875 1.90625 -13.078125 C 1.90625 -16.984375 3.054688 -20.804688 5.359375 -24.546875 C 6.117188 -25.910156 7.09375 -27.09375 8.28125 -28.09375 C 9.476562 -29.09375 10.785156 -29.921875 12.203125 -30.578125 C 13.628906 -31.234375 15.117188 -31.726562 16.671875 -32.0625 C 18.222656 -32.40625 19.722656 -32.578125 21.171875 -32.578125 Z M 21.171875 -32.578125 "/></g></g></g><g fill="#ffffff" fill-opacity="1"><g transform="translate(890.014798, 385.032951)"><g/></g></g><g fill="#2bb673" fill-opacity="1"><g transform="translate(907.233406, 385.032951)"><g><path d="M 10.078125 -43.75 C 10.546875 -43.789062 10.90625 -43.8125 11.15625 -43.8125 C 11.414062 -43.8125 11.566406 -43.8125 11.609375 -43.8125 C 11.648438 -43.851562 11.773438 -43.804688 11.984375 -43.671875 C 12.160156 -43.546875 12.597656 -43.484375 13.296875 -43.484375 C 13.992188 -43.484375 14.617188 -43.359375 15.171875 -43.109375 C 15.898438 -42.722656 16.429688 -42.273438 16.765625 -41.765625 C 16.984375 -41.460938 17.125 -41.046875 17.1875 -40.515625 C 17.25 -39.984375 17.257812 -39.570312 17.21875 -39.28125 C 17.132812 -39.0625 17.015625 -37.941406 16.859375 -35.921875 C 16.710938 -33.910156 16.492188 -31.015625 16.203125 -27.234375 C 15.773438 -22.335938 15.460938 -18.304688 15.265625 -15.140625 C 15.078125 -11.972656 14.960938 -9.601562 14.921875 -8.03125 C 14.921875 -6.96875 14.898438 -6.414062 14.859375 -6.375 C 14.734375 -6.25 14.96875 -6.1875 15.5625 -6.1875 C 16.070312 -6.1875 17.023438 -6.25 18.421875 -6.375 C 22.117188 -6.632812 25.476562 -6.765625 28.5 -6.765625 C 28.84375 -6.765625 29.363281 -6.765625 30.0625 -6.765625 C 30.769531 -6.765625 31.492188 -6.753906 32.234375 -6.734375 C 32.972656 -6.710938 33.648438 -6.675781 34.265625 -6.625 C 34.890625 -6.582031 35.285156 -6.519531 35.453125 -6.4375 C 36.210938 -6.144531 36.550781 -5.765625 36.46875 -5.296875 C 36.425781 -5.078125 36.46875 -4.847656 36.59375 -4.609375 C 36.726562 -4.378906 36.796875 -4.160156 36.796875 -3.953125 C 36.796875 -3.742188 36.898438 -3.46875 37.109375 -3.125 C 37.328125 -2.78125 37.390625 -2.546875 37.296875 -2.421875 C 37.171875 -2.253906 37.191406 -2.0625 37.359375 -1.84375 C 37.535156 -1.632812 37.644531 -1.15625 37.6875 -0.40625 C 37.726562 0.332031 37.644531 0.957031 37.4375 1.46875 C 37.257812 1.976562 36.882812 2.519531 36.3125 3.09375 C 35.738281 3.664062 35.175781 3.953125 34.625 3.953125 C 34.320312 4.035156 34.148438 4.097656 34.109375 4.140625 C 34.023438 4.222656 31.050781 4.265625 25.1875 4.265625 C 22.25 4.265625 19.960938 4.273438 18.328125 4.296875 C 16.691406 4.328125 15.640625 4.363281 15.171875 4.40625 C 14.835938 4.445312 14.273438 4.46875 13.484375 4.46875 C 12.703125 4.46875 11.691406 4.46875 10.453125 4.46875 C 9.609375 4.507812 8.929688 4.519531 8.421875 4.5 C 7.910156 4.476562 7.546875 4.46875 7.328125 4.46875 C 6.609375 4.332031 6.035156 4.09375 5.609375 3.75 C 5.179688 3.414062 4.863281 3.003906 4.65625 2.515625 C 4.445312 2.023438 4.304688 1.492188 4.234375 0.921875 C 4.171875 0.347656 4.117188 -0.253906 4.078125 -0.890625 C 4.035156 -1.660156 4.015625 -2.875 4.015625 -4.53125 C 4.015625 -6.1875 4.054688 -8.289062 4.140625 -10.84375 C 4.359375 -18.789062 4.476562 -25.003906 4.5 -29.484375 C 4.519531 -33.972656 4.441406 -36.832031 4.265625 -38.0625 C 4.179688 -38.914062 4.066406 -39.53125 3.921875 -39.90625 C 3.773438 -40.289062 3.53125 -40.65625 3.1875 -41 L 2.609375 -41.640625 L 3.0625 -42.078125 C 3.914062 -42.804688 4.894531 -43.191406 6 -43.234375 C 6.332031 -43.273438 6.65625 -43.316406 6.96875 -43.359375 C 7.289062 -43.398438 7.5625 -43.441406 7.78125 -43.484375 C 8.070312 -43.523438 8.410156 -43.566406 8.796875 -43.609375 C 9.179688 -43.648438 9.609375 -43.695312 10.078125 -43.75 Z M 10.078125 -43.75 "/></g></g></g><g fill="#2bb673" fill-opacity="1"><g transform="translate(946.574347, 385.032951)"><g><path d="M 6.953125 -31.75 C 7.285156 -31.832031 7.960938 -31.875 8.984375 -31.875 C 9.410156 -31.875 9.75 -31.875 10 -31.875 C 10.257812 -31.875 10.460938 -31.851562 10.609375 -31.8125 C 10.765625 -31.769531 10.90625 -31.71875 11.03125 -31.65625 C 11.15625 -31.59375 11.328125 -31.5 11.546875 -31.375 C 13.078125 -30.519531 13.925781 -29.304688 14.09375 -27.734375 C 14.132812 -27.523438 14.09375 -26.039062 13.96875 -23.28125 C 13.882812 -22 13.816406 -20.613281 13.765625 -19.125 C 13.722656 -17.632812 13.679688 -16.039062 13.640625 -14.34375 C 13.597656 -12.6875 13.554688 -11.390625 13.515625 -10.453125 C 13.472656 -9.523438 13.429688 -8.929688 13.390625 -8.671875 C 13.179688 -7.691406 13.222656 -7.203125 13.515625 -7.203125 C 13.640625 -7.203125 13.710938 -7.148438 13.734375 -7.046875 C 13.753906 -6.941406 13.742188 -6.523438 13.703125 -5.796875 C 13.617188 -4.828125 13.546875 -3.882812 13.484375 -2.96875 C 13.421875 -2.050781 13.304688 -1.101562 13.140625 -0.125 C 12.796875 1.320312 12.519531 2.273438 12.3125 2.734375 C 12.175781 3.078125 11.945312 3.441406 11.625 3.828125 C 11.3125 4.210938 11.09375 4.40625 10.96875 4.40625 C 10.882812 4.40625 10.710938 4.507812 10.453125 4.71875 C 10.160156 4.96875 9.71875 5.203125 9.125 5.421875 L 8.21875 5.796875 L 7.453125 5.359375 C 6.523438 4.847656 5.726562 4.175781 5.0625 3.34375 C 4.40625 2.519531 3.953125 1.597656 3.703125 0.578125 L 3.375 -0.515625 L 3.375 -4.65625 C 3.375 -7.289062 3.441406 -10.476562 3.578125 -14.21875 C 3.828125 -21.28125 3.867188 -25.363281 3.703125 -26.46875 C 3.484375 -27.53125 3.140625 -28.207031 2.671875 -28.5 C 2.253906 -28.84375 2.300781 -29.269531 2.8125 -29.78125 C 3.101562 -30.113281 3.429688 -30.363281 3.796875 -30.53125 C 4.160156 -30.707031 4.550781 -30.859375 4.96875 -30.984375 C 5.476562 -31.078125 5.863281 -31.207031 6.125 -31.375 C 6.289062 -31.5 6.4375 -31.582031 6.5625 -31.625 C 6.695312 -31.664062 6.828125 -31.707031 6.953125 -31.75 Z M 8.734375 -45.53125 C 10.472656 -45.53125 11.984375 -44.804688 13.265625 -43.359375 C 13.472656 -43.066406 13.671875 -42.789062 13.859375 -42.53125 C 14.054688 -42.28125 14.238281 -42.003906 14.40625 -41.703125 C 14.707031 -41.148438 14.859375 -40.515625 14.859375 -39.796875 C 14.859375 -38.984375 14.65625 -38.269531 14.25 -37.65625 C 13.84375 -37.039062 13.332031 -36.539062 12.71875 -36.15625 C 12.101562 -35.769531 11.421875 -35.476562 10.671875 -35.28125 C 9.929688 -35.09375 9.203125 -35 8.484375 -35 C 7.628906 -35 6.820312 -35.128906 6.0625 -35.390625 C 5.164062 -35.734375 4.613281 -35.988281 4.40625 -36.15625 C 4.101562 -36.40625 3.851562 -36.765625 3.65625 -37.234375 C 3.46875 -37.703125 3.3125 -38.210938 3.1875 -38.765625 C 3.0625 -39.316406 2.96875 -39.859375 2.90625 -40.390625 C 2.84375 -40.921875 2.8125 -41.378906 2.8125 -41.765625 C 2.71875 -42.535156 3.140625 -43.28125 4.078125 -44 C 4.804688 -44.59375 5.519531 -44.992188 6.21875 -45.203125 C 6.914062 -45.421875 7.753906 -45.53125 8.734375 -45.53125 Z M 8.734375 -45.53125 "/></g></g></g><g fill="#2bb673" fill-opacity="1"><g transform="translate(964.172566, 385.032951)"><g><path d="M 29.328125 -32.578125 C 29.546875 -32.671875 29.953125 -32.726562 30.546875 -32.75 C 31.140625 -32.769531 31.988281 -32.78125 33.09375 -32.78125 C 34.195312 -32.738281 35.066406 -32.691406 35.703125 -32.640625 C 36.347656 -32.597656 36.796875 -32.535156 37.046875 -32.453125 C 37.941406 -32.117188 38.554688 -31.648438 38.890625 -31.046875 C 39.109375 -30.671875 39.109375 -29.78125 38.890625 -28.375 C 38.847656 -27.90625 38.707031 -27.273438 38.46875 -26.484375 C 38.238281 -25.703125 37.953125 -24.875 37.609375 -24 C 37.273438 -23.132812 36.9375 -22.304688 36.59375 -21.515625 C 36.257812 -20.734375 35.984375 -20.109375 35.765625 -19.640625 C 35.429688 -18.960938 35.050781 -18.125 34.625 -17.125 C 34.195312 -16.125 33.75 -14.921875 33.28125 -13.515625 C 33.070312 -12.878906 32.628906 -11.898438 31.953125 -10.578125 C 31.179688 -9.140625 30.734375 -8.25 30.609375 -7.90625 C 30.566406 -7.820312 30.476562 -7.617188 30.34375 -7.296875 C 30.21875 -6.984375 30.03125 -6.59375 29.78125 -6.125 C 29.394531 -5.3125 29.078125 -4.609375 28.828125 -4.015625 C 27.847656 -1.972656 26.921875 -0.296875 26.046875 1.015625 C 25.171875 2.335938 24.351562 3.273438 23.59375 3.828125 C 23.164062 4.117188 22.71875 4.289062 22.25 4.34375 C 21.875 4.425781 21.523438 4.476562 21.203125 4.5 C 20.878906 4.519531 20.613281 4.570312 20.40625 4.65625 C 19.726562 4.78125 19.175781 4.84375 18.75 4.84375 C 18.195312 4.84375 17.566406 4.648438 16.859375 4.265625 C 16.160156 3.890625 15.597656 3.53125 15.171875 3.1875 C 15.046875 3.0625 14.941406 3 14.859375 3 C 14.773438 3 14.5625 2.773438 14.21875 2.328125 C 13.875 1.878906 13.617188 1.53125 13.453125 1.28125 C 13.367188 1.101562 13.285156 0.800781 13.203125 0.375 C 13.117188 0.125 12.914062 -0.5 12.59375 -1.5 C 12.269531 -2.5 11.8125 -3.847656 11.21875 -5.546875 C 10.625 -7.285156 10.09375 -8.859375 9.625 -10.265625 C 9.15625 -11.671875 8.6875 -12.96875 8.21875 -14.15625 C 5.84375 -20.789062 3.890625 -24.875 2.359375 -26.40625 C 2.273438 -26.488281 2.144531 -26.582031 1.96875 -26.6875 C 1.800781 -26.789062 1.613281 -26.925781 1.40625 -27.09375 C 1.0625 -27.394531 0.816406 -27.648438 0.671875 -27.859375 C 0.523438 -28.078125 0.492188 -28.3125 0.578125 -28.5625 C 0.617188 -28.863281 0.9375 -29.332031 1.53125 -29.96875 C 2.164062 -30.601562 2.632812 -30.941406 2.9375 -30.984375 C 3.269531 -31.078125 3.710938 -31.207031 4.265625 -31.375 C 4.816406 -31.539062 5.671875 -31.625 6.828125 -31.625 C 9.328125 -31.625 11.066406 -31.457031 12.046875 -31.125 C 12.773438 -30.863281 13.285156 -30.4375 13.578125 -29.84375 C 14.046875 -28.820312 14.546875 -27.648438 15.078125 -26.328125 C 15.609375 -25.015625 16.128906 -23.550781 16.640625 -21.9375 C 17.023438 -20.65625 17.40625 -19.332031 17.78125 -17.96875 C 18.164062 -16.613281 18.550781 -15.238281 18.9375 -13.84375 C 19.832031 -10.351562 20.300781 -8.609375 20.34375 -8.609375 C 20.507812 -8.609375 21.234375 -10.539062 22.515625 -14.40625 C 23.109375 -16.320312 23.648438 -18.117188 24.140625 -19.796875 C 24.628906 -21.472656 25.039062 -22.992188 25.375 -24.359375 C 25.71875 -25.585938 25.960938 -26.671875 26.109375 -27.609375 C 26.253906 -28.546875 26.375 -29.3125 26.46875 -29.90625 C 26.507812 -30.664062 26.613281 -31.15625 26.78125 -31.375 C 26.863281 -31.5 27.085938 -31.664062 27.453125 -31.875 C 27.816406 -32.09375 28.125 -32.203125 28.375 -32.203125 C 28.539062 -32.242188 28.707031 -32.296875 28.875 -32.359375 C 29.050781 -32.421875 29.203125 -32.492188 29.328125 -32.578125 Z M 29.328125 -32.578125 "/></g></g></g><g fill="#2bb673" fill-opacity="1"><g transform="translate(1004.21488, 385.032951)"><g><path d="M 21.171875 -25 C 19.003906 -25 17.269531 -24.347656 15.96875 -23.046875 C 14.675781 -21.753906 13.664062 -20.171875 12.9375 -18.296875 L 12.5625 -17.28125 L 12.9375 -17.28125 C 13.445312 -17.28125 14.039062 -17.320312 14.71875 -17.40625 C 15.40625 -17.488281 16.109375 -17.59375 16.828125 -17.71875 C 17.554688 -17.851562 18.25 -17.992188 18.90625 -18.140625 C 19.5625 -18.285156 20.144531 -18.425781 20.65625 -18.5625 C 23.46875 -19.320312 24.875 -20.570312 24.875 -22.3125 C 24.875 -22.90625 24.765625 -23.375 24.546875 -23.71875 C 24.335938 -24.0625 24.0625 -24.328125 23.71875 -24.515625 C 23.375 -24.710938 22.976562 -24.84375 22.53125 -24.90625 C 22.09375 -24.96875 21.640625 -25 21.171875 -25 Z M 21.171875 -32.578125 C 23.460938 -32.578125 25.660156 -32.128906 27.765625 -31.234375 C 29.867188 -30.347656 31.601562 -28.882812 32.96875 -26.84375 C 34.15625 -25.101562 34.769531 -23.296875 34.8125 -21.421875 C 34.851562 -19.804688 34.515625 -18.273438 33.796875 -16.828125 C 33.410156 -16.191406 32.835938 -15.492188 32.078125 -14.734375 C 31.734375 -14.390625 31.421875 -14.097656 31.140625 -13.859375 C 30.867188 -13.628906 30.628906 -13.410156 30.421875 -13.203125 C 29.773438 -12.691406 28.828125 -12.242188 27.578125 -11.859375 C 26.328125 -11.472656 24.976562 -11.140625 23.53125 -10.859375 C 22.082031 -10.585938 20.664062 -10.390625 19.28125 -10.265625 C 17.90625 -10.140625 16.769531 -10.078125 15.875 -10.078125 C 14.976562 -10.035156 14.398438 -9.96875 14.140625 -9.875 C 13.890625 -9.789062 13.617188 -9.769531 13.328125 -9.8125 C 13.023438 -9.863281 12.789062 -9.863281 12.625 -9.8125 C 12.457031 -9.769531 12.363281 -9.71875 12.34375 -9.65625 C 12.320312 -9.59375 12.332031 -9.394531 12.375 -9.0625 C 12.457031 -8.039062 12.835938 -7.175781 13.515625 -6.46875 C 14.191406 -5.769531 15 -5.195312 15.9375 -4.75 C 16.875 -4.300781 17.875 -3.96875 18.9375 -3.75 C 20 -3.539062 20.957031 -3.4375 21.8125 -3.4375 C 24.488281 -3.4375 27.035156 -4.269531 29.453125 -5.9375 C 29.671875 -6.0625 29.894531 -6.238281 30.125 -6.46875 C 30.363281 -6.707031 30.578125 -6.941406 30.765625 -7.171875 C 30.953125 -7.410156 31.117188 -7.632812 31.265625 -7.84375 C 31.421875 -8.050781 31.5 -8.203125 31.5 -8.296875 C 31.5 -8.546875 31.601562 -8.566406 31.8125 -8.359375 C 31.988281 -8.222656 32.097656 -7.476562 32.140625 -6.125 C 32.179688 -5.394531 32.210938 -4.703125 32.234375 -4.046875 C 32.253906 -3.390625 32.242188 -2.742188 32.203125 -2.109375 C 32.203125 -0.742188 32.179688 0.0390625 32.140625 0.25 C 31.921875 1.351562 31.3125 2.234375 30.3125 2.890625 C 29.320312 3.554688 28.1875 4.066406 26.90625 4.421875 C 25.632812 4.785156 24.335938 5.03125 23.015625 5.15625 C 21.703125 5.289062 20.597656 5.359375 19.703125 5.359375 C 17.878906 5.316406 16.222656 5.164062 14.734375 4.90625 C 13.242188 4.65625 11.878906 4.207031 10.640625 3.5625 C 9.410156 2.925781 8.273438 2.066406 7.234375 0.984375 C 6.191406 -0.0976562 5.203125 -1.507812 4.265625 -3.25 C 2.691406 -6.269531 1.90625 -9.546875 1.90625 -13.078125 C 1.90625 -16.984375 3.054688 -20.804688 5.359375 -24.546875 C 6.117188 -25.910156 7.09375 -27.09375 8.28125 -28.09375 C 9.476562 -29.09375 10.785156 -29.921875 12.203125 -30.578125 C 13.628906 -31.234375 15.117188 -31.726562 16.671875 -32.0625 C 18.222656 -32.40625 19.722656 -32.578125 21.171875 -32.578125 Z M 21.171875 -32.578125 "/></g></g></g><g fill="#2bb673" fill-opacity="1"><g transform="translate(1041.515442, 385.032951)"><g><path d="M 18.625 -32.328125 C 18.914062 -32.328125 19.429688 -32.328125 20.171875 -32.328125 C 20.921875 -32.328125 21.707031 -32.304688 22.53125 -32.265625 C 23.363281 -32.222656 24.128906 -32.160156 24.828125 -32.078125 C 25.535156 -31.992188 25.992188 -31.863281 26.203125 -31.6875 C 26.421875 -31.5625 26.632812 -31.328125 26.84375 -30.984375 C 27.0625 -30.648438 27.335938 -30.226562 27.671875 -29.71875 C 27.972656 -29.289062 28.207031 -28.925781 28.375 -28.625 C 28.539062 -28.332031 28.675781 -28.066406 28.78125 -27.828125 C 28.894531 -27.597656 28.972656 -27.375 29.015625 -27.15625 C 29.054688 -26.945312 29.078125 -26.695312 29.078125 -26.40625 C 29.078125 -24.53125 28.226562 -23.359375 26.53125 -22.890625 C 26.394531 -22.847656 26.15625 -22.804688 25.8125 -22.765625 C 25.476562 -22.722656 25.109375 -22.679688 24.703125 -22.640625 C 24.304688 -22.597656 23.925781 -22.554688 23.5625 -22.515625 C 23.195312 -22.472656 22.953125 -22.453125 22.828125 -22.453125 C 22.785156 -22.453125 22.765625 -22.515625 22.765625 -22.640625 C 22.765625 -22.765625 22.601562 -22.859375 22.28125 -22.921875 C 21.96875 -22.984375 21.789062 -23.078125 21.75 -23.203125 C 21.707031 -23.503906 21.363281 -23.65625 20.71875 -23.65625 C 20.425781 -23.65625 20.257812 -23.695312 20.21875 -23.78125 C 20.175781 -23.863281 20.046875 -23.882812 19.828125 -23.84375 C 19.703125 -23.800781 19.445312 -23.84375 19.0625 -23.96875 C 18.726562 -24.0625 18.410156 -24.128906 18.109375 -24.171875 C 17.804688 -24.210938 17.507812 -24.234375 17.21875 -24.234375 C 16.195312 -24.234375 15.289062 -24 14.5 -23.53125 C 13.71875 -23.0625 13.09375 -22.335938 12.625 -21.359375 C 12.320312 -20.679688 12.195312 -20.300781 12.25 -20.21875 C 12.375 -20.082031 12.765625 -19.875 13.421875 -19.59375 C 14.078125 -19.320312 14.660156 -19.101562 15.171875 -18.9375 C 15.554688 -18.851562 15.960938 -18.742188 16.390625 -18.609375 C 16.816406 -18.484375 17.265625 -18.378906 17.734375 -18.296875 C 21.335938 -17.535156 24.097656 -16.367188 26.015625 -14.796875 C 27.710938 -13.390625 28.847656 -11.984375 29.421875 -10.578125 C 29.992188 -9.179688 30.113281 -7.523438 29.78125 -5.609375 C 29.3125 -2.585938 27.675781 -0.0546875 24.875 1.984375 C 24.101562 2.535156 23.164062 3.019531 22.0625 3.4375 C 20.957031 3.863281 19.785156 4.234375 18.546875 4.546875 C 17.316406 4.867188 16.097656 5.113281 14.890625 5.28125 C 13.679688 5.457031 12.609375 5.546875 11.671875 5.546875 C 9.078125 5.546875 7.078125 5.097656 5.671875 4.203125 C 3.585938 2.972656 2.359375 1.929688 1.984375 1.078125 C 1.554688 0.148438 1.488281 -0.546875 1.78125 -1.015625 C 1.914062 -1.234375 1.984375 -1.507812 1.984375 -1.84375 C 2.023438 -2.0625 2.054688 -2.273438 2.078125 -2.484375 C 2.097656 -2.703125 2.128906 -2.914062 2.171875 -3.125 C 2.296875 -3.46875 2.378906 -3.914062 2.421875 -4.46875 C 2.503906 -4.882812 2.585938 -5.140625 2.671875 -5.234375 C 2.765625 -5.359375 2.8125 -5.632812 2.8125 -6.0625 C 2.8125 -6.3125 2.820312 -6.46875 2.84375 -6.53125 C 2.863281 -6.59375 2.894531 -6.644531 2.9375 -6.6875 C 2.976562 -6.738281 3.007812 -6.816406 3.03125 -6.921875 C 3.050781 -7.023438 3.0625 -7.226562 3.0625 -7.53125 L 3.125 -8.15625 L 3.1875 -8.09375 C 3.351562 -7.71875 3.457031 -7.632812 3.5 -7.84375 C 3.550781 -7.882812 3.578125 -7.945312 3.578125 -8.03125 C 3.578125 -8.15625 3.597656 -8.175781 3.640625 -8.09375 C 3.679688 -8.050781 3.691406 -8.007812 3.671875 -7.96875 C 3.648438 -7.925781 3.660156 -7.863281 3.703125 -7.78125 C 4.335938 -6.082031 5.21875 -4.867188 6.34375 -4.140625 C 7.46875 -3.421875 8.925781 -3.0625 10.71875 -3.0625 C 11.5625 -3.0625 12.429688 -3.144531 13.328125 -3.3125 C 14.222656 -3.488281 15.113281 -3.742188 16 -4.078125 C 17.707031 -4.710938 18.5625 -5.90625 18.5625 -7.65625 C 18.5625 -8.207031 18.472656 -8.566406 18.296875 -8.734375 C 17.742188 -9.285156 15.535156 -9.878906 11.671875 -10.515625 C 10.347656 -10.816406 9.644531 -11.007812 9.5625 -11.09375 C 9.476562 -11.175781 9.285156 -11.257812 8.984375 -11.34375 C 8.097656 -11.4375 7.132812 -11.894531 6.09375 -12.71875 C 5.050781 -13.550781 4.164062 -14.5 3.4375 -15.5625 C 2.71875 -16.664062 2.328125 -18.003906 2.265625 -19.578125 C 2.203125 -21.148438 2.46875 -22.765625 3.0625 -24.421875 C 3.445312 -25.609375 4.203125 -26.722656 5.328125 -27.765625 C 6.453125 -28.804688 7.566406 -29.601562 8.671875 -30.15625 C 10.117188 -30.925781 11.734375 -31.476562 13.515625 -31.8125 C 15.304688 -32.15625 17.007812 -32.328125 18.625 -32.328125 Z M 18.625 -32.328125 "/></g></g></g></svg>